<?xml version="1.0" encoding="utf-8"?>
<!-- Generator: Adobe Illustrator 16.0.3, SVG Export Plug-In . SVG Version: 6.00 Build 0)  -->
<!DOCTYPE svg PUBLIC "-//W3C//DTD SVG 1.1//EN" "http://www.w3.org/Graphics/SVG/1.1/DTD/svg11.dtd">
<svg version="1.1" id="Layer_1" xmlns="http://www.w3.org/2000/svg" xmlns:xlink="http://www.w3.org/1999/xlink" x="0px" y="0px"
	 width="35px" height="35px" viewBox="0 0 35 35" enable-background="new 0 0 35 35" xml:space="preserve">
<path fill="#FFFFFF" d="M31.081,25.171l-5.188-2.594c-0.488-0.245-0.793-0.736-0.793-1.285v-1.836
	c0.125-0.151,0.257-0.325,0.392-0.516c0.672-0.952,1.212-2.01,1.604-3.151c0.767-0.352,1.265-1.109,1.265-1.965v-2.172
	c0-0.523-0.196-1.03-0.544-1.426V7.338c0.031-0.299,0.15-2.078-1.137-3.545c-1.114-1.272-2.926-1.918-5.381-1.918
	s-4.266,0.646-5.381,1.917c-0.78,0.89-1.042,1.891-1.122,2.61c-0.932-0.481-2.028-0.725-3.274-0.725
	c-5.644,0-5.972,4.81-5.975,4.889v2.487c-0.352,0.383-0.544,0.826-0.544,1.265v1.876c0,0.586,0.262,1.133,0.713,1.502
	c0.448,1.69,1.55,2.966,1.979,3.414v1.491c0,0.427-0.233,0.819-0.636,1.039l-3.614,2.267c-1.384,0.755-2.243,2.204-2.243,3.78v2.063
	h7.604h1.086H33.79v-2.196C33.79,27.687,32.753,26.006,31.081,25.171z M8.805,29.447v1.216H2.287v-0.976
	c0-1.179,0.643-2.262,1.707-2.843l3.613-2.266c0.724-0.396,1.174-1.152,1.174-1.978v-1.952l-0.173-0.161
	c-0.014-0.013-1.458-1.376-1.884-3.234l-0.049-0.216l-0.186-0.119c-0.25-0.162-0.399-0.433-0.399-0.725v-1.876
	c0-0.195,0.133-0.428,0.364-0.637l0.179-0.161l-0.001-2.922c0.01-0.156,0.293-3.834,4.89-3.834c1.299,0,2.394,0.3,3.258,0.894v2.569
	c-0.347,0.396-0.543,0.903-0.543,1.426v2.172c0,0.165,0.019,0.328,0.056,0.486c0.014,0.063,0.043,0.12,0.063,0.181
	c0.03,0.091,0.054,0.185,0.096,0.271c0,0.001,0.001,0.002,0.001,0.003c0.139,0.287,0.342,0.543,0.597,0.749
	c0.002,0.01,0.006,0.019,0.009,0.029c0.032,0.124,0.066,0.248,0.104,0.369l0.043,0.141c0.008,0.025,0.018,0.051,0.025,0.076
	c0.019,0.059,0.038,0.117,0.057,0.174c0.034,0.095,0.067,0.194,0.106,0.3c0.018,0.045,0.036,0.085,0.053,0.129
	c0.045,0.114,0.089,0.223,0.136,0.332c0.012,0.026,0.021,0.054,0.032,0.08l0.031,0.068c0.014,0.031,0.029,0.059,0.043,0.09
	c0.053,0.116,0.106,0.229,0.16,0.337c0.008,0.018,0.017,0.037,0.026,0.054c0.033,0.067,0.067,0.132,0.102,0.197
	c0.059,0.111,0.115,0.217,0.173,0.318c0.029,0.051,0.057,0.1,0.084,0.147c0.079,0.133,0.153,0.256,0.226,0.371
	c0.016,0.023,0.031,0.048,0.046,0.072c0.132,0.202,0.246,0.368,0.339,0.498c0.026,0.034,0.047,0.063,0.069,0.093
	c0.012,0.016,0.028,0.037,0.038,0.053v1.796c0,0.526-0.287,1.009-0.748,1.261l-1.438,0.783l-0.25-0.022l-0.102,0.216l-3.056,1.666
	C9.783,26.005,8.805,27.653,8.805,29.447z M32.704,30.663H9.891v-1.216c0-1.396,0.762-2.679,1.988-3.348l4.846-2.644
	c0.81-0.442,1.313-1.291,1.313-2.214V19.06v-0.001l-0.104-0.125l-0.021-0.025c-0.002-0.002-0.035-0.042-0.089-0.113
	c-0.004-0.005-0.008-0.01-0.011-0.014c-0.029-0.036-0.063-0.082-0.103-0.136c0-0.001,0-0.002,0-0.002
	c-0.082-0.113-0.183-0.26-0.296-0.436c-0.004-0.004-0.006-0.008-0.007-0.013c-0.055-0.082-0.11-0.173-0.168-0.269
	c-0.006-0.008-0.009-0.015-0.013-0.022c-0.123-0.206-0.253-0.439-0.384-0.697c0,0,0-0.001,0-0.001
	c-0.07-0.138-0.139-0.284-0.207-0.436l0,0c-0.008-0.021-0.019-0.042-0.027-0.063l0,0c-0.03-0.067-0.061-0.139-0.091-0.212
	c-0.011-0.026-0.022-0.055-0.032-0.081c-0.028-0.072-0.057-0.143-0.087-0.225c-0.055-0.148-0.107-0.302-0.157-0.461l-0.03-0.097
	c-0.004-0.01-0.008-0.022-0.011-0.033c-0.051-0.171-0.099-0.347-0.141-0.527l-0.05-0.215l-0.186-0.12
	c-0.314-0.204-0.503-0.543-0.503-0.911v-2.172c0-0.305,0.129-0.589,0.365-0.801l0.179-0.161V7.307V7.115l-0.014-0.011
	c-0.019-0.393,0.004-1.595,0.881-2.595c0.9-1.027,2.436-1.547,4.565-1.547c2.12,0,3.653,0.517,4.557,1.536
	c1.057,1.195,0.882,2.725,0.88,2.738L26.73,10.69l0.179,0.162c0.234,0.212,0.364,0.496,0.364,0.801v2.172
	c0,0.474-0.311,0.89-0.773,1.031l-0.27,0.083l-0.086,0.27c-0.365,1.13-0.882,2.174-1.541,3.102
	c-0.161,0.229-0.318,0.433-0.455,0.586l-0.135,0.156v2.239c0,0.962,0.534,1.826,1.395,2.256l5.188,2.595
	c1.299,0.65,2.107,1.958,2.107,3.411V30.663z"/>
</svg>
