<?xml version="1.0" encoding="iso-8859-1"?>
<!-- Generator: Adobe Illustrator 18.0.0, SVG Export Plug-In . SVG Version: 6.00 Build 0)  -->
<!DOCTYPE svg PUBLIC "-//W3C//DTD SVG 1.1//EN" "http://www.w3.org/Graphics/SVG/1.1/DTD/svg11.dtd">
<svg version="1.1" id="Capa_1" xmlns="http://www.w3.org/2000/svg" xmlns:xlink="http://www.w3.org/1999/xlink" x="0px" y="0px"
	 viewBox="0 0 444 444" style="enable-background:new 0 0 444 444;" xml:space="preserve">
<g>
	<path style="fill:#F99C38;" d="M97.648,317.691c-12.345-25.401-16.456-54.196-10.711-81.848
		c5.744-27.648,20.604-53.3,43.351-72.256l0,0c37.066-30.888,53.595-80.006,42.746-127.019L164.595,0
		c0,0,102.337,60.966,104.514,209.028c0,0,32.661-63.144,4.355-113.223c0,0,150.239,87.095,65.321,248.22l0,0
		c-26.411,38.432-69.203,62.385-115.772,64.804l-78.424,5.449L97.648,317.691z"/>
	<path style="fill:#EF5252;" d="M223.342,301.642c0,0,62.484-35.242,74.168-63.284c11.684,49.074-16.358,112.168-16.358,112.168
		l-42.474,30.942L223.342,301.642z"/>
	<path style="fill:#EF5252;" d="M254.429,414.789c0,0,32.479-58.869,2.364-97.463s-38.399-72.601-30.138-105.234
		c0,0-73.505,82.749-56.937,150.761l0,0c24.805-7.747,51.82,0.551,67.998,20.888L254.429,414.789z"/>
	<path style="fill:#666666;" d="M108.97,444h203.594c16.436,0,29.76-13.324,29.76-29.76v0c0-16.436-13.324-29.76-29.76-29.76H108.97
		V444z"/>
	<path style="fill:#999999;" d="M108.97,384.48L108.97,384.48c-16.436,0-29.76,13.324-29.76,29.76v0
		c0,16.436,13.324,29.76,29.76,29.76h0c16.436,0,29.76-13.324,29.76-29.76v0C138.73,397.804,125.406,384.48,108.97,384.48z"/>
	<polygon style="fill:#999999;" points="163.935,384.482 134.278,335.222 133.615,334.136 184.602,303.427 185.322,304.617 
		219.565,361.493 198.575,384.486 	"/>
	<polygon style="fill:#999999;" points="270.033,384.48 304.778,356.436 261.69,315.354 198.575,384.486 	"/>
	<path style="fill:#666666;" d="M184.603,303.424L184.603,303.424c-8.478-14.081-26.765-18.622-40.846-10.145l0,0
		c-14.081,8.478-18.622,26.765-10.145,40.846l0,0c8.478,14.081,26.765,18.622,40.846,10.145l0,0
		C188.539,335.792,193.081,317.505,184.603,303.424z"/>
	<path style="fill:#666666;" d="M305.644,355.488L305.644,355.488c11.082-12.137,10.227-30.961-1.91-42.043l0,0
		c-12.137-11.082-30.961-10.227-42.043,1.91l0,0c-11.082,12.137-10.227,30.961,1.91,42.043l0,0
		C275.738,368.48,294.562,367.625,305.644,355.488z"/>
	<polygon style="fill:#666666;" points="261.691,315.354 198.575,384.486 220.394,384.486 279.594,324.821 	"/>
	<polygon style="fill:#666666;" points="133.613,334.126 163.935,384.482 179.11,384.484 151.846,339.621 	"/>
	<path style="fill:#999999;" d="M109.105,422.968V444h203.594c13.398,0,24.726-8.855,28.456-21.032H109.105z"/>
</g>
<g>
</g>
<g>
</g>
<g>
</g>
<g>
</g>
<g>
</g>
<g>
</g>
<g>
</g>
<g>
</g>
<g>
</g>
<g>
</g>
<g>
</g>
<g>
</g>
<g>
</g>
<g>
</g>
<g>
</g>
</svg>
