<?xml version="1.0" encoding="utf-8"?>
<!-- Generator: Adobe Illustrator 16.0.3, SVG Export Plug-In . SVG Version: 6.00 Build 0)  -->
<!DOCTYPE svg PUBLIC "-//W3C//DTD SVG 1.1//EN" "http://www.w3.org/Graphics/SVG/1.1/DTD/svg11.dtd">
<svg version="1.1" id="Layer_1" xmlns="http://www.w3.org/2000/svg" xmlns:xlink="http://www.w3.org/1999/xlink" x="0px" y="0px"
	 width="35px" height="35px" viewBox="0 0 35 35" enable-background="new 0 0 35 35" xml:space="preserve">
<g>
	<g>
		<path fill="#FFFFFF" d="M23.811,27.756c-1.507,0-2.678,1.236-2.678,2.745c0,1.507,1.237,2.743,2.678,2.743
			c1.442,0,2.68-1.236,2.68-2.743C26.49,28.992,25.253,27.756,23.811,27.756z M23.811,31.869c-0.757,0-1.303-0.619-1.303-1.376
			c0-0.756,0.619-1.375,1.303-1.375c0.685,0,1.304,0.619,1.304,1.375C25.114,31.25,24.495,31.869,23.811,31.869z"/>
		<path fill="#FFFFFF" d="M9.196,27.756c-1.507,0-2.678,1.236-2.678,2.745c0,1.507,1.237,2.743,2.678,2.743
			c1.507,0,2.678-1.236,2.678-2.743C11.874,28.992,10.637,27.756,9.196,27.756z M9.196,31.869c-0.757,0-1.303-0.619-1.303-1.376
			c0-0.756,0.618-1.375,1.303-1.375c0.756,0,1.303,0.619,1.303,1.375C10.499,31.258,9.887,31.869,9.196,31.869L9.196,31.869z"/>
		<path fill="#FFFFFF" d="M30.26,1l-1.066,4.185H2.267l4.968,14.721c-1.665,0.243-2.909,1.651-2.909,3.461
			c0,1.986,1.507,3.565,3.429,3.565h18.662V25.63H7.755c-1.165,0-2.06-0.96-2.06-2.196c0-1.238,0.961-2.198,2.06-2.198h18.662h0.066
			l4.869-18.867h2.743V1H30.26L30.26,1z M25.457,19.867H8.65L4.188,6.554h24.631L25.457,19.867L25.457,19.867z"/>
		<rect x="10.979" y="9.778" fill="#FFFFFF" width="1.375" height="7.752"/>
		<rect x="15.856" y="9.778" fill="#FFFFFF" width="1.375" height="7.752"/>
		<rect x="20.725" y="9.778" fill="#FFFFFF" width="1.376" height="7.752"/>
	</g>
</g>
</svg>
