<?xml version="1.0" encoding="utf-8"?>
<!-- Generator: Adobe Illustrator 16.0.3, SVG Export Plug-In . SVG Version: 6.00 Build 0)  -->
<!DOCTYPE svg PUBLIC "-//W3C//DTD SVG 1.1//EN" "http://www.w3.org/Graphics/SVG/1.1/DTD/svg11.dtd">
<svg version="1.1" id="Layer_1" xmlns="http://www.w3.org/2000/svg" xmlns:xlink="http://www.w3.org/1999/xlink" x="0px" y="0px"
	 width="50px" height="50px" viewBox="0 0 50 50" enable-background="new 0 0 50 50" xml:space="preserve">
<g>
	<g>
		<path fill="#FFFFFF" d="M24.04,46.183H11.642c-3.369,0-6.103-2.744-6.103-6.103V10.201c0-3.369,2.744-6.103,6.103-6.103h12.599
			c0.757,0,1.362-0.605,1.362-1.362c0-0.757-0.605-1.362-1.362-1.362H11.642c-4.872,0-8.826,3.964-8.826,8.826V40.08
			c0,4.872,3.964,8.826,8.826,8.826H24.04c0.756,0,1.362-0.605,1.362-1.361C25.401,46.788,24.786,46.183,24.04,46.183z"/>
		<path fill="#FFFFFF" d="M46.474,24.183l-8.655-8.655c-0.535-0.534-1.392-0.534-1.927,0c-0.533,0.535-0.533,1.392,0,1.927
			l6.335,6.335H14.598c-0.756,0-1.362,0.605-1.362,1.361c0,0.757,0.605,1.361,1.362,1.361h27.629l-6.335,6.336
			c-0.533,0.534-0.533,1.392,0,1.926c0.264,0.263,0.616,0.404,0.958,0.404c0.344,0,0.696-0.132,0.959-0.404l8.654-8.654
			C47.008,25.575,47.008,24.707,46.474,24.183z"/>
	</g>
</g>
</svg>
