<?xml version="1.0" encoding="utf-8"?>
<!-- Generator: Adobe Illustrator 16.0.3, SVG Export Plug-In . SVG Version: 6.00 Build 0)  -->
<!DOCTYPE svg PUBLIC "-//W3C//DTD SVG 1.1//EN" "http://www.w3.org/Graphics/SVG/1.1/DTD/svg11.dtd">
<svg version="1.1" id="Layer_1" xmlns="http://www.w3.org/2000/svg" xmlns:xlink="http://www.w3.org/1999/xlink" x="0px" y="0px"
	 width="35px" height="35px" viewBox="0 0 35 35" enable-background="new 0 0 35 35" xml:space="preserve">
<g>
	<g>
		<path fill="#FFFFFF" d="M28.193,23.889c-0.137,0-0.273-0.05-0.38-0.15l-6.378-5.983c-0.224-0.208-0.233-0.56-0.024-0.783
			c0.209-0.225,0.559-0.234,0.784-0.024l6.378,5.983c0.223,0.208,0.233,0.561,0.024,0.782C28.487,23.83,28.341,23.889,28.193,23.889
			z"/>
		<path fill="#FFFFFF" d="M6.902,23.889c-0.148,0-0.295-0.059-0.405-0.175c-0.209-0.222-0.198-0.574,0.024-0.782l6.381-5.983
			c0.224-0.208,0.575-0.2,0.783,0.024c0.209,0.223,0.199,0.575-0.024,0.783l-6.38,5.983C7.174,23.839,7.038,23.889,6.902,23.889z"/>
	</g>
	<path fill="#FFFFFF" d="M31.965,29.453H3.131c-1.528,0-2.771-1.242-2.771-2.771V7.785c0-1.529,1.244-2.771,2.771-2.771h28.834
		c1.527,0,2.771,1.243,2.771,2.771v18.897C34.736,28.211,33.492,29.453,31.965,29.453z M3.131,6.122
		c-0.917,0-1.663,0.747-1.663,1.663v18.897c0,0.916,0.746,1.661,1.663,1.661h28.834c0.917,0,1.663-0.745,1.663-1.661V7.785
		c0-0.917-0.746-1.663-1.663-1.663H3.131z"/>
	<path fill="#FFFFFF" d="M17.548,20.019c-0.738,0-1.475-0.245-2.035-0.734L1.279,6.869c-0.23-0.201-0.255-0.552-0.054-0.783
		c0.203-0.23,0.552-0.251,0.782-0.053l14.234,12.415c0.708,0.618,1.905,0.618,2.612,0L33.069,6.052
		c0.229-0.2,0.578-0.178,0.783,0.054c0.2,0.231,0.177,0.581-0.054,0.783L19.583,19.283C19.021,19.773,18.285,20.019,17.548,20.019z"
		/>
</g>
</svg>
