<?xml version="1.0" encoding="iso-8859-1"?>
<!-- Generator: Adobe Illustrator 19.0.0, SVG Export Plug-In . SVG Version: 6.00 Build 0)  -->
<svg version="1.1" id="Layer_1" xmlns="http://www.w3.org/2000/svg" xmlns:xlink="http://www.w3.org/1999/xlink" x="0px" y="0px"
	 viewBox="0 0 504 504" style="enable-background:new 0 0 504 504;" xml:space="preserve">
<circle style="fill:#76E83A;" cx="252" cy="252" r="244"/>
<path style="fill:#AAFC7A;" d="M8,252C8,117.6,117.6,8,252,8"/>
<path style="fill:#62D122;" d="M424.8,79.2c95.2,95.2,95.2,249.6,0,344.8S175.2,519.2,80,424"/>
<path style="fill:#2F5068;" d="M252,504C112.8,504,0,391.2,0,252S112.8,0,252,0s252,112.8,252,252S391.2,504,252,504z M252,16
	C121.6,16,16,121.6,16,252s105.6,236,236,236s236-105.6,236-236S382.4,16,252,16z"/>
<polygon style="fill:#FF9100;" points="252,248 42.4,368.8 252,12.8 252,245.6 "/>
<path style="fill:#2F5068;" d="M42.4,376.8c-2.4,0-4-0.8-5.6-2.4c-2.4-2.4-3.2-6.4-0.8-9.6l208.8-356c1.6-3.2,5.6-4.8,8.8-4
	c3.2,0.8,5.6,4,5.6,8V248c0,3.2-1.6,5.6-4,7.2L46.4,376C45.6,376.8,44,376.8,42.4,376.8z M244,42.4L64.8,347.2l179.2-104V42.4z"/>
<polygon style="fill:#FFBC00;" points="252,248 461.6,368.8 252,12.8 252,245.6 "/>
<polygon style="fill:#FF9100;" points="254.4,249.6 461.6,368.8 340.8,163.2 "/>
<path style="fill:#2F5068;" d="M461.6,376.8c-1.6,0-2.4,0-4-0.8L248,255.2c-2.4-1.6-4-4-4-7.2V12.8c0-4,2.4-6.4,5.6-8
	c3.2-0.8,7.2,0.8,8.8,4l209.6,356c1.6,3.2,1.6,7.2-1.6,9.6C465.6,376,463.2,376.8,461.6,376.8z M260,243.2l179.2,103.2L260,42.4
	V243.2z"/>
<polygon style="fill:#FFBC00;" points="42.4,372 252,251.2 461.6,372 "/>
<path style="fill:#2F5068;" d="M461.6,380L461.6,380H42.4c-4,0-6.4-4-8-7.2s0.8-8,4-9.6L248,241.6c2.4-1.6,5.6-1.6,8,0l208.8,120
	c3.2,0.8,4.8,5.6,4.8,8.8C469.6,375.2,466.4,380,461.6,380z M72,364h359.2L252,260L72,364z"/>
<polygon style="fill:#FFDA00;" points="252,248.8 149.6,307.2 252,133.6 252,247.2 "/>
<path style="fill:#2F5068;" d="M149.6,315.2c-2.4,0-4-0.8-5.6-2.4c-2.4-2.4-3.2-6.4-1.6-9.6l102.4-173.6c1.6-3.2,5.6-4.8,8.8-4
	c3.2,0.8,5.6,4,5.6,8v115.2c0,3.2-1.6,5.6-4,7.2l-102.4,59.2C152.8,315.2,151.2,315.2,149.6,315.2z M244,163.2l-72,122.4l72-41.6
	V163.2z"/>
<polygon style="fill:#FFBC00;" points="252,248.8 354.4,307.2 252,133.6 252,247.2 "/>
<path style="fill:#2F5068;" d="M354.4,315.2c-1.6,0-2.4,0-4-0.8L248,255.2c-2.4-1.6-4-4-4-7.2V133.6c0-4,2.4-6.4,5.6-8
	c3.2-0.8,7.2,0.8,8.8,4l102.4,173.6c1.6,3.2,1.6,7.2-1.6,9.6C358.4,314.4,356,315.2,354.4,315.2z M260,244l72,41.6l-72-122.4V244z"
	/>
<polygon style="fill:#FF9100;" points="149.6,308 252,248.8 354.4,308 "/>
<g>
	<path style="fill:#2F5068;" d="M354.4,316L354.4,316H149.6c-4,0-6.4-2.4-8-6.4s0.8-7.2,4-8.8L248,241.6c2.4-1.6,5.6-1.6,8,0
		L357.6,300c3.2,0.8,4.8,4,4.8,8S358.4,316,354.4,316z M180,300h144l-72-41.6L180,300z"/>
	<path style="fill:#2F5068;" d="M252,501.6c-3.2,0-5.6-1.6-7.2-4L36,140.8c-1.6-2.4-1.6-4,0-6.4c0.8-2.4,4-2.4,6.4-2.4h419.2
		c3.2,0,5.6,0,7.2,2.4s1.6,4.8,0,7.2l-209.6,356C257.6,500,255.2,501.6,252,501.6z M56.8,148L252,480.8L447.2,148H56.8z"/>
</g>
<g>
</g>
<g>
</g>
<g>
</g>
<g>
</g>
<g>
</g>
<g>
</g>
<g>
</g>
<g>
</g>
<g>
</g>
<g>
</g>
<g>
</g>
<g>
</g>
<g>
</g>
<g>
</g>
<g>
</g>
</svg>
