<?xml version="1.0" encoding="utf-8"?>
<!-- Generator: Adobe Illustrator 16.0.3, SVG Export Plug-In . SVG Version: 6.00 Build 0)  -->
<!DOCTYPE svg PUBLIC "-//W3C//DTD SVG 1.1//EN" "http://www.w3.org/Graphics/SVG/1.1/DTD/svg11.dtd">
<svg version="1.1" id="Layer_1" xmlns="http://www.w3.org/2000/svg" xmlns:xlink="http://www.w3.org/1999/xlink" x="0px" y="0px"
	 width="35px" height="35px" viewBox="0 0 35 35" enable-background="new 0 0 35 35" xml:space="preserve">
<g>
	<g>
		<path fill="#FFFFFF" d="M32.407,18.005c-0.136-0.279-0.136-0.6,0-0.878l1.265-2.587c0.705-1.44,0.146-3.158-1.27-3.909
			l-2.544-1.35c-0.274-0.146-0.463-0.405-0.517-0.71l-0.497-2.836c-0.277-1.579-1.738-2.64-3.325-2.416l-2.852,0.403
			c-0.307,0.043-0.611-0.055-0.835-0.271l-2.07-2.002c-1.151-1.115-2.957-1.115-4.11,0L13.583,3.45
			c-0.223,0.216-0.527,0.314-0.835,0.271L9.897,3.318C8.309,3.094,6.849,4.155,6.572,5.734L6.075,8.57
			c-0.054,0.306-0.242,0.565-0.517,0.71l-2.543,1.35c-1.416,0.751-1.974,2.468-1.27,3.909l1.265,2.587
			c0.136,0.279,0.136,0.599,0,0.878l-1.265,2.588c-0.704,1.439-0.146,3.156,1.27,3.908l2.543,1.35
			c0.275,0.146,0.463,0.404,0.517,0.71l0.498,2.836c0.252,1.438,1.485,2.446,2.902,2.446c0.14,0,0.281-0.01,0.423-0.029l2.852-0.403
			c0.308-0.044,0.612,0.056,0.835,0.271l2.069,2.001c0.577,0.559,1.316,0.837,2.055,0.837c0.74,0,1.479-0.278,2.055-0.837
			l2.07-2.001c0.224-0.216,0.528-0.315,0.835-0.271l2.852,0.403c1.587,0.225,3.048-0.837,3.325-2.417l0.497-2.836
			c0.054-0.306,0.242-0.564,0.517-0.71l2.544-1.35c1.416-0.752,1.975-2.469,1.27-3.908L32.407,18.005z M31.486,22.773l-2.545,1.349
			c-0.811,0.432-1.366,1.196-1.525,2.101l-0.497,2.836c-0.094,0.535-0.588,0.894-1.125,0.818l-2.853-0.404
			c-0.908-0.128-1.808,0.164-2.468,0.803l-2.07,2.002c-0.389,0.378-1.001,0.378-1.391,0l-2.07-2.002
			c-0.557-0.539-1.287-0.831-2.048-0.831c-0.139,0-0.28,0.009-0.42,0.028l-2.851,0.404c-0.537,0.075-1.032-0.283-1.125-0.818
			L8,26.223c-0.158-0.904-0.714-1.669-1.525-2.101l-2.544-1.349c-0.479-0.255-0.668-0.835-0.43-1.323l1.265-2.587
			c0.403-0.824,0.403-1.77,0-2.596L3.501,13.68c-0.238-0.487-0.049-1.068,0.43-1.322l2.544-1.35c0.811-0.43,1.367-1.196,1.525-2.1
			l0.498-2.836c0.094-0.534,0.588-0.894,1.125-0.817l2.851,0.403c0.909,0.129,1.81-0.164,2.469-0.802l2.07-2.002
			c0.39-0.377,1.001-0.377,1.391,0l2.069,2.002c0.661,0.639,1.561,0.931,2.469,0.802l2.853-0.403
			c0.536-0.076,1.031,0.283,1.125,0.817l0.497,2.836c0.159,0.905,0.715,1.67,1.525,2.1l2.545,1.35
			c0.479,0.254,0.667,0.834,0.429,1.322l-1.265,2.587c-0.403,0.826-0.403,1.771,0,2.596l1.265,2.587
			C32.153,21.938,31.965,22.519,31.486,22.773z"/>
	</g>
</g>
<g>
	<g>
		<path fill="#FFFFFF" d="M24.854,10.421c-0.383-0.382-1.001-0.382-1.384,0L10.563,23.327c-0.382,0.382-0.382,1.001,0,1.384
			c0.191,0.19,0.441,0.286,0.691,0.286s0.5-0.096,0.691-0.286l12.907-12.907C25.235,11.422,25.235,10.803,24.854,10.421z"/>
	</g>
</g>
<g>
	<g>
		<path fill="#FFFFFF" d="M13.797,8.765c-1.978,0-3.586,1.609-3.586,3.585c0,1.978,1.608,3.586,3.586,3.586
			c1.977,0,3.584-1.608,3.584-3.586C17.382,10.374,15.774,8.765,13.797,8.765z M13.797,13.98c-0.899,0-1.63-0.731-1.63-1.63
			c0-0.898,0.731-1.629,1.63-1.629c0.898,0,1.63,0.731,1.63,1.629C15.426,13.249,14.695,13.98,13.797,13.98z"/>
	</g>
</g>
<g>
	<g>
		<path fill="#FFFFFF" d="M21.619,19.195c-1.977,0-3.585,1.608-3.585,3.585c0,1.978,1.608,3.585,3.585,3.585
			c1.978,0,3.585-1.607,3.585-3.585C25.204,20.804,23.597,19.195,21.619,19.195z M21.619,24.41c-0.897,0-1.629-0.731-1.629-1.63
			c0-0.897,0.731-1.63,1.629-1.63c0.899,0,1.63,0.732,1.63,1.63C23.249,23.679,22.519,24.41,21.619,24.41z"/>
	</g>
</g>
</svg>
