<?xml version="1.0" encoding="utf-8"?>
<!-- Generator: Adobe Illustrator 16.0.3, SVG Export Plug-In . SVG Version: 6.00 Build 0)  -->
<!DOCTYPE svg PUBLIC "-//W3C//DTD SVG 1.1//EN" "http://www.w3.org/Graphics/SVG/1.1/DTD/svg11.dtd">
<svg version="1.1" id="Layer_1" xmlns="http://www.w3.org/2000/svg" xmlns:xlink="http://www.w3.org/1999/xlink" x="0px" y="0px"
	 width="35px" height="35px" viewBox="0 0 35 35" enable-background="new 0 0 35 35" xml:space="preserve">
<g>
	<g>
		<path fill="#FFFFFF" d="M24.523,18.048c-4.673,0-8.476,3.803-8.476,8.477c0,4.673,3.803,8.476,8.476,8.476
			C29.197,35,33,31.197,33,26.524C33,21.851,29.197,18.048,24.523,18.048z M24.523,33.87c-4.051,0-7.346-3.296-7.346-7.346
			c0-4.051,3.295-7.347,7.346-7.347s7.346,3.296,7.346,7.347C31.869,30.574,28.574,33.87,24.523,33.87z"/>
	</g>
</g>
<g>
	<g>
		<path fill="#FFFFFF" d="M27.349,25.959h-2.26v-3.955c0-0.313-0.253-0.565-0.565-0.565s-0.564,0.253-0.564,0.565v4.521
			c0,0.312,0.252,0.564,0.564,0.564h2.825c0.313,0,0.565-0.253,0.565-0.564C27.914,26.212,27.662,25.959,27.349,25.959z"/>
	</g>
</g>
<g>
	<g>
		<path fill="#FFFFFF" d="M16.612,32.175H5.311v-3.956c0-0.312-0.253-0.564-0.565-0.564s-0.565,0.253-0.565,0.564v4.521
			c0,0.312,0.253,0.564,0.565,0.564h11.866c0.313,0,0.565-0.253,0.565-0.564C17.178,32.428,16.925,32.175,16.612,32.175z"/>
	</g>
</g>
<g>
	<g>
		<path fill="#FFFFFF" d="M4.746,25.394c-0.312,0-0.565,0.254-0.565,0.565s0.253,0.565,0.565,0.565h0.006
			c0.312,0,0.562-0.254,0.562-0.565S5.058,25.394,4.746,25.394z"/>
	</g>
</g>
<g>
	<g>
		<path fill="#FFFFFF" d="M27.748,10.302l-9.041-9.041c-0.105-0.106-0.249-0.166-0.399-0.166H4.746
			c-0.312,0-0.565,0.253-0.565,0.565v22.038c0,0.313,0.253,0.565,0.565,0.565s0.565-0.253,0.565-0.565V2.226h12.432v8.476
			c0,0.312,0.253,0.565,0.564,0.565h8.477v5.085c0,0.312,0.253,0.565,0.564,0.565c0.313,0,0.565-0.253,0.565-0.565v-5.65
			C27.914,10.552,27.854,10.408,27.748,10.302z M18.873,10.137V3.025l7.112,7.112H18.873L18.873,10.137z"/>
	</g>
</g>
</svg>
