<?xml version="1.0" encoding="utf-8"?>
<!-- Generator: Adobe Illustrator 16.0.3, SVG Export Plug-In . SVG Version: 6.00 Build 0)  -->
<!DOCTYPE svg PUBLIC "-//W3C//DTD SVG 1.1//EN" "http://www.w3.org/Graphics/SVG/1.1/DTD/svg11.dtd">
<svg version="1.1" id="Layer_1" xmlns="http://www.w3.org/2000/svg" xmlns:xlink="http://www.w3.org/1999/xlink" x="0px" y="0px"
	 width="85px" height="85px" viewBox="0 0 85 85" enable-background="new 0 0 85 85" xml:space="preserve">
<path fill="#92CCFF" d="M59.131,22.174V16.63H35.109L42.5,74.837h16.631c4.064,0,7.391-3.326,7.391-7.392v-37.88
	C66.521,25.5,63.195,22.174,59.131,22.174z"/>
<path fill="#C9E5FF" d="M25.87,16.63v5.543c-4.065,0-7.392,3.326-7.392,7.392v37.88c0,4.065,3.326,7.392,7.392,7.392H42.5V16.63
	H25.87z"/>
<polygon fill="#C9A06C" points="59.131,9.239 42.5,9.239 38.804,16.63 59.131,16.63 "/>
<rect x="25.87" y="9.239" fill="#DBBC82" width="16.63" height="7.391"/>
<polygon fill="#92CCFF" points="60.979,14.783 42.5,14.783 38.804,16.63 42.5,18.478 60.979,18.478 "/>
<rect x="24.022" y="14.783" fill="#C9E5FF" width="18.478" height="3.695"/>
<path fill="#DDD532" d="M36.957,30.858L42.5,71.142h16.631c2.037,0,3.695-1.658,3.695-3.696V34.554L36.957,30.858z"/>
<path fill="#FFF3AD" d="M59.131,25.87h-3.696v-7.392H42.5l-5.543,8.5l5.543,7.576c5.08,0,5.081,2.957,10.162,2.957
	c5.082,0,5.082-2.957,10.164-2.957v-4.989C62.826,27.527,61.168,25.87,59.131,25.87z"/>
<path fill="#FFE65A" d="M22.174,34.554v32.891c0,2.038,1.658,3.696,3.696,3.696H42.5V30.858L22.174,34.554z"/>
<path fill="#FFFFFF" d="M29.565,18.478v7.392H25.87c-2.038,0-3.696,1.658-3.696,3.696v4.989c5.082,0,5.082,2.957,10.163,2.957
	s5.081-2.957,10.163-2.957c0.001,0,0.001-16.076,0.001-16.076H29.565z"/>
<path fill="#365F2C" d="M59.125,62.613l-0.867-26.875l-11.189,0l-0.867,26.875c-0.002,0.07-0.006,0.141-0.006,0.213
	c0,3.572,2.896,6.467,6.468,6.467c3.572,0,6.468-2.895,6.468-6.467C59.131,62.755,59.127,62.685,59.125,62.613z"/>
<path fill="#44702A" d="M58.258,35.738l-0.056-1.735c-0.097-2.977-2.538-5.361-5.539-5.361s-5.442,2.384-5.538,5.361l-0.057,1.735
	c1.466,0.823,2.714,1.773,5.594,1.773C55.543,37.511,56.791,36.561,58.258,35.738z"/>
<path fill="#81982D" d="M38.799,62.613l-0.867-26.876l-11.189,0l-0.867,26.875c-0.002,0.071-0.005,0.142-0.005,0.213
	c0,3.572,2.896,6.467,6.467,6.467c3.572,0,6.468-2.895,6.468-6.467C38.804,62.755,38.801,62.685,38.799,62.613z"/>
<path fill="#A0AD2F" d="M32.337,28.642c-3,0-5.442,2.384-5.539,5.361l-0.056,1.735c1.466,0.823,2.714,1.773,5.595,1.773
	c2.881,0,4.129-0.951,5.595-1.773l-0.056-1.735C37.779,31.025,35.337,28.642,32.337,28.642z"/>
<path fill="#63842C" d="M48.039,34.003c-0.097-2.977-2.539-5.361-5.539-5.361l-1.848,11.392l7.462-3.695L48.039,34.003z"/>
<path fill="#81982D" d="M36.961,34.003l-0.076,2.335H42.5v-7.697C39.5,28.642,37.057,31.025,36.961,34.003z"/>
<path fill="#44702A" d="M48.962,62.613l-0.848-26.274c-1.475-0.826-2.722-1.784-5.614-1.785l-3.696,17.37L42.5,69.293
	c3.572,0,6.467-2.895,6.467-6.467C48.967,62.755,48.965,62.685,48.962,62.613z"/>
<path fill="#63842C" d="M42.499,34.554c-2.893,0-4.139,0.958-5.613,1.784l-0.848,26.275c-0.002,0.071-0.005,0.142-0.005,0.213
	c0,3.572,2.896,6.467,6.467,6.467C42.5,69.293,42.5,34.554,42.499,34.554z"/>
<rect x="38.81" y="40.44" fill="#44702A" width="3.69" height="3.695"/>
<rect x="42.505" y="47.831" fill="#365F2C" width="3.69" height="3.695"/>
<g>
	<polygon fill="#63842C" points="25.994,58.918 25.875,62.613 29.565,62.613 29.565,58.918 	"/>
	<rect x="29.571" y="47.831" fill="#63842C" width="3.69" height="3.695"/>
</g>
<g>
	<rect x="51.744" y="55.223" fill="#274E2D" width="3.691" height="3.695"/>
	<polygon fill="#274E2D" points="58.648,47.831 55.072,47.831 55.072,51.526 58.768,51.526 	"/>
</g>
</svg>
