<?xml version="1.0" encoding="utf-8"?>
<!-- Generator: Adobe Illustrator 16.0.3, SVG Export Plug-In . SVG Version: 6.00 Build 0)  -->
<!DOCTYPE svg PUBLIC "-//W3C//DTD SVG 1.1//EN" "http://www.w3.org/Graphics/SVG/1.1/DTD/svg11.dtd">
<svg version="1.1" id="Layer_1" xmlns="http://www.w3.org/2000/svg" xmlns:xlink="http://www.w3.org/1999/xlink" x="0px" y="0px"
	 width="35px" height="35px" viewBox="0 0 35 35" enable-background="new 0 0 35 35" xml:space="preserve">
<g>
	<path fill="#FFFFFF" d="M17.75,15.789c2.134,0,3.869-1.736,3.869-3.87c0-2.133-1.735-3.869-3.869-3.869s-3.869,1.736-3.869,3.869
		C13.881,14.053,15.616,15.789,17.75,15.789z M17.75,9.156c1.524,0,2.765,1.24,2.765,2.763c0,1.524-1.24,2.764-2.765,2.764
		c-1.523,0-2.764-1.24-2.764-2.764C14.986,10.396,16.227,9.156,17.75,9.156z"/>
	<path fill="#FFFFFF" d="M17.652,31.685l8.479-12.248c3.182-4.24,2.721-11.209-0.984-14.915c-2.002-2.002-4.664-3.105-7.495-3.105
		c-2.832,0-5.493,1.103-7.496,3.105C6.451,8.227,5.992,15.196,9.159,19.42L17.652,31.685z M10.938,5.304
		c1.793-1.794,4.178-2.781,6.714-2.781c2.535,0,4.92,0.987,6.713,2.781c3.345,3.344,3.758,9.639,0.871,13.486l-7.584,10.952
		l-7.596-10.968C7.182,14.942,7.595,8.647,10.938,5.304z"/>
	<path fill="#FFFFFF" d="M24.447,25.19c-0.304-0.037-0.578,0.18-0.613,0.483s0.182,0.578,0.485,0.614
		c5.813,0.684,8.909,2.528,8.909,3.597c0,1.5-5.89,3.594-15.479,3.594c-9.59,0-15.478-2.094-15.478-3.594
		c0-1.068,3.096-2.913,8.909-3.597c0.303-0.036,0.52-0.312,0.484-0.614c-0.036-0.304-0.31-0.521-0.614-0.483
		c-5.82,0.685-9.885,2.615-9.885,4.694c0,2.335,5.696,4.698,16.583,4.698s16.583-2.363,16.583-4.698
		C34.333,27.806,30.269,25.875,24.447,25.19z"/>
</g>
</svg>
