<?xml version="1.0" encoding="utf-8"?>
<!-- Generator: Adobe Illustrator 16.0.3, SVG Export Plug-In . SVG Version: 6.00 Build 0)  -->
<!DOCTYPE svg PUBLIC "-//W3C//DTD SVG 1.1//EN" "http://www.w3.org/Graphics/SVG/1.1/DTD/svg11.dtd">
<svg version="1.1" id="Layer_1" xmlns="http://www.w3.org/2000/svg" xmlns:xlink="http://www.w3.org/1999/xlink" x="0px" y="0px"
	 width="85px" height="85px" viewBox="0 0 85 85" enable-background="new 0 0 85 85" xml:space="preserve">
<g>
	<path fill-rule="evenodd" clip-rule="evenodd" fill="#128542" d="M44.106,31.936c2.39-6.374,9.698-12.852,19.745-10.635
		c-5.542,1.317-6.755,9.388-9.354,14.134C51.207,41.497,41.75,38.275,44.106,31.936L44.106,31.936z"/>
	<path fill-rule="evenodd" clip-rule="evenodd" fill="#A7832E" d="M28.101,80.296L28.101,80.296c0,0-6.513-12.609-9.111-17.979
		c-8.626-17.807,55.428-17.807,46.767,0c-2.598,5.369-9.076,17.979-9.076,17.979l0,0C54.741,84.107,30.006,84.107,28.101,80.296
		L28.101,80.296z"/>
	<path fill-rule="evenodd" clip-rule="evenodd" fill="#8C6B29" d="M42.374,49.292c21.132,0,23.245,3.949,23.245,6.894
		c0,6.928-46.49,6.928-46.49,0C19.128,53.241,21.242,49.292,42.374,49.292L42.374,49.292z"/>
	<path fill-rule="evenodd" clip-rule="evenodd" fill="#A7832E" d="M41.715,46.59c19.573,0,21.547,3.706,21.547,6.408
		c0,6.443-43.095,6.443-43.095,0C20.167,50.296,22.107,46.59,41.715,46.59L41.715,46.59z"/>
	<path fill-rule="evenodd" clip-rule="evenodd" fill="#8C6B29" d="M41.75,53.241c18.396,0,20.231-3.43,20.231-5.993
		c0-6.028-40.428-6.028-40.428,0C21.554,49.812,23.39,53.241,41.75,53.241L41.75,53.241z"/>
	<path fill-rule="evenodd" clip-rule="evenodd" fill="#684C21" d="M41.75,43.748c9.666,0,17.529,1.248,17.529,2.807
		s-7.863,2.842-17.529,2.842c-9.666,0-17.494-1.283-17.494-2.842S32.084,43.748,41.75,43.748L41.75,43.748z"/>
	<path fill-rule="evenodd" clip-rule="evenodd" fill="#FBCF07" d="M29.764,47.49c-4.227-3.326-2.356-12.194-4.4-16.871
		c0,0,2.01-0.069,2.599,1.143c0,0-1.04-2.355,0.312-6.582c1.386-4.192,1.455-6.998,1.455-6.998s1.767,0.762,1.836,2.183
		c0,0,0.069-2.667,1.905-5.058c1.836-2.425,1.456-4.711,1.456-4.711s1.628,1.281,1.351,3.256C38.598,11.254,41.473,3.183,41.75,1
		c0.416,2.425,3.083,10.116,5.508,12.853c-0.312-1.975,1.351-3.256,1.351-3.256s-0.38,2.286,1.456,4.711
		c1.836,2.39,1.904,5.058,1.904,5.058c0.07-1.42,1.836-2.183,1.836-2.183s0.07,2.806,1.456,6.998
		c1.351,4.227,0.276,6.582,0.276,6.582c0.624-1.212,2.599-1.143,2.599-1.143c-2.009,4.677-0.139,13.545-4.364,16.871
		c-3.152,0.485-7.38,0.762-12.021,0.762C37.108,48.252,32.916,47.976,29.764,47.49L29.764,47.49z"/>
	<path fill-rule="evenodd" clip-rule="evenodd" fill="#F3A51D" d="M52.87,47.628c-3.014,0.382-6.895,0.624-11.12,0.624
		c-4.227,0-8.072-0.242-11.121-0.624c-2.355-3.325-1.247-9.769-2.771-13.336c0,0,1.697-0.069,2.217,0.97c0,0-0.9-2.009,0.243-5.577
		c1.178-3.568,1.247-5.958,1.247-5.958s1.49,0.658,1.559,1.871c0,0,0.034-2.252,1.594-4.296c1.559-2.043,1.247-3.983,1.247-3.983
		s1.385,1.074,1.143,2.736c1.975-2.182,4.399-9.042,4.642-10.878c0.346,2.044,2.599,8.591,4.677,10.878
		c-0.242-1.663,1.144-2.736,1.144-2.736s-0.313,1.94,1.212,3.983c1.559,2.044,1.628,4.296,1.628,4.296
		c0.069-1.213,1.559-1.871,1.559-1.871s0.07,2.391,1.248,5.958c1.143,3.568,0.242,5.577,0.242,5.577
		c0.52-1.039,2.218-0.97,2.218-0.97C54.151,37.859,55.261,44.303,52.87,47.628L52.87,47.628z"/>
	<path fill-rule="evenodd" clip-rule="evenodd" fill="#EC8023" d="M52.419,47.664c-2.943,0.381-6.65,0.588-10.669,0.588
		c-3.984,0-7.69-0.207-10.635-0.588c-0.728-2.945-0.416-6.791-1.42-9.181c0,0,1.455-0.035,1.905,0.866c0,0-0.797-1.732,0.243-4.85
		c1.005-3.083,1.074-5.162,1.074-5.162s1.282,0.554,1.352,1.628c0,0,0.034-1.974,1.385-3.741c1.351-1.767,1.074-3.464,1.074-3.464
		s1.212,0.935,0.969,2.39c1.733-1.905,3.846-7.864,4.054-9.458c0.312,1.802,2.252,7.448,4.053,9.458
		c-0.207-1.455,1.006-2.39,1.006-2.39s-0.278,1.697,1.072,3.464c1.352,1.767,1.386,3.741,1.386,3.741
		c0.07-1.074,1.353-1.628,1.353-1.628s0.068,2.079,1.073,5.162c1.005,3.118,0.242,4.85,0.242,4.85
		c0.451-0.9,1.905-0.866,1.905-0.866C52.801,40.874,53.147,44.719,52.419,47.664L52.419,47.664z"/>
	<path fill-rule="evenodd" clip-rule="evenodd" fill="#128542" d="M45.283,42.467c2.979-7.102,11.051-9.596,16.975-9.18
		c-5.161,6.582-3.568,9.7-6.131,13.581c-0.208,0.346-0.45,0.658-0.728,0.969c-2.218,0.451-5.301,0.798-8.869,0.937
		C44.937,47.387,44.175,45.1,45.283,42.467L45.283,42.467z"/>
	<path fill-rule="evenodd" clip-rule="evenodd" fill="#128542" d="M38.32,42.709c-3.464-8.279-12.818-11.154-19.712-10.635
		c5.647,7.136,4.365,10.773,6.652,14.931c1.975,0.901,6.755,1.594,12.679,1.802C39.013,47.248,39.36,45.1,38.32,42.709L38.32,42.709
		z"/>
	<path fill-rule="evenodd" clip-rule="evenodd" fill="#3B2314" d="M44.175,65.608c1.801-0.52,2.702-1.247,2.876-2.183
		c0.138-0.97-0.209-1.386-0.416-1.386c0,0,0.381,2.286-2.183,2.425c-1.663,0.104-2.321,0.624-2.667,1.351
		c-0.277,0.485-0.312,1.352-0.312,2.321c-1.282-0.035-2.355-0.208-2.563-0.865c-0.52-1.803-1.247-2.702-2.217-2.842
		c-0.935-0.173-1.351,0.174-1.351,0.416c0,0,2.252-0.381,2.425,2.183c0.104,1.662,0.623,2.286,1.316,2.668
		c0.485,0.242,1.386,0.311,2.355,0.311c-0.035,1.283-0.208,2.356-0.866,2.529c-1.801,0.555-2.702,1.282-2.876,2.218
		c-0.138,0.97,0.208,1.351,0.451,1.351c0,0-0.381-2.252,2.147-2.39c1.698-0.104,2.321-0.624,2.702-1.352
		c0.243-0.485,0.276-1.351,0.313-2.321c1.246,0.035,2.355,0.208,2.528,0.866c0.52,1.801,1.246,2.702,2.217,2.841
		c0.97,0.173,1.352-0.208,1.352-0.416c0,0-2.252,0.382-2.425-2.183c-0.104-1.663-0.624-2.286-1.316-2.667
		c-0.486-0.242-1.386-0.313-2.355-0.313C43.378,66.89,43.516,65.815,44.175,65.608L44.175,65.608z"/>
	<path fill-rule="evenodd" clip-rule="evenodd" fill="#3B2314" d="M43.897,71.324c0.347-0.277,0.866-0.208,1.144,0.139
		c0.277,0.381,0.174,0.866-0.174,1.143c-0.346,0.277-0.865,0.208-1.143-0.173C43.447,72.086,43.552,71.566,43.897,71.324
		L43.897,71.324z"/>
	<path fill-rule="evenodd" clip-rule="evenodd" fill="#3B2314" d="M39.602,65.573c0.381-0.277,0.866-0.207,1.143,0.173
		c0.277,0.347,0.208,0.866-0.173,1.109c-0.347,0.276-0.867,0.208-1.108-0.139C39.187,66.335,39.256,65.815,39.602,65.573
		L39.602,65.573z"/>
	<path fill-rule="evenodd" clip-rule="evenodd" fill="#3B2314" d="M40.018,70.735c0.277,0.381,0.208,0.866-0.173,1.143
		c-0.347,0.278-0.866,0.208-1.143-0.173c-0.243-0.346-0.173-0.865,0.173-1.144C39.256,70.32,39.74,70.389,40.018,70.735
		L40.018,70.735z"/>
	<path fill-rule="evenodd" clip-rule="evenodd" fill="#3B2314" d="M45.769,66.475c0.276,0.346,0.174,0.865-0.173,1.108
		c-0.347,0.277-0.867,0.208-1.144-0.139c-0.277-0.381-0.173-0.866,0.173-1.144C44.972,66.023,45.491,66.093,45.769,66.475
		L45.769,66.475z"/>
</g>
</svg>
