<?xml version="1.0" encoding="utf-8"?>
<!-- Generator: Adobe Illustrator 16.0.3, SVG Export Plug-In . SVG Version: 6.00 Build 0)  -->
<!DOCTYPE svg PUBLIC "-//W3C//DTD SVG 1.1//EN" "http://www.w3.org/Graphics/SVG/1.1/DTD/svg11.dtd">
<svg version="1.1" id="Layer_1" xmlns="http://www.w3.org/2000/svg" xmlns:xlink="http://www.w3.org/1999/xlink" x="0px" y="0px"
	 width="50px" height="50px" viewBox="0 0 50 50" enable-background="new 0 0 50 50" xml:space="preserve">
<path fill="#FFFFFF" d="M47.959,22.353c0.944-0.92,1.278-2.271,0.87-3.528c-0.408-1.256-1.472-2.152-2.778-2.343L34.43,14.794
	c-0.494-0.072-0.922-0.382-1.144-0.831l-5.195-10.53c-0.583-1.183-1.767-1.918-3.087-1.918c-1.318,0-2.502,0.735-3.085,1.918
	l-5.196,10.53c-0.221,0.449-0.649,0.759-1.145,0.831l-11.62,1.689c-1.306,0.189-2.37,1.086-2.778,2.342
	c-0.407,1.256-0.074,2.607,0.871,3.528l8.408,8.196c0.358,0.35,0.523,0.853,0.438,1.345L8.912,43.467
	c-0.223,1.301,0.301,2.589,1.369,3.365c1.067,0.778,2.456,0.879,3.625,0.263l10.392-5.464c0.443-0.232,0.971-0.232,1.415,0
	l10.394,5.464c0.507,0.268,1.057,0.398,1.604,0.398c0.71,0,1.417-0.222,2.021-0.661c1.068-0.776,1.592-2.064,1.369-3.365
	l-1.985-11.572c-0.085-0.493,0.079-0.995,0.438-1.345L47.959,22.353z M37.22,32.22l1.984,11.572c0.1,0.582-0.126,1.139-0.604,1.486
	c-0.479,0.347-1.076,0.39-1.6,0.116L26.606,39.93c-0.501-0.263-1.052-0.395-1.603-0.395c-0.549,0-1.1,0.132-1.601,0.396
	l-10.392,5.464c-0.525,0.273-1.122,0.23-1.601-0.116c-0.479-0.348-0.703-0.903-0.604-1.486l1.984-11.572
	c0.191-1.117-0.179-2.257-0.99-3.047l-8.409-8.196c-0.424-0.414-0.568-0.996-0.385-1.558c0.183-0.563,0.641-0.95,1.227-1.035
	l11.619-1.688c1.122-0.163,2.091-0.866,2.592-1.883l5.196-10.529c0.261-0.531,0.771-0.847,1.363-0.847
	c0.592,0,1.101,0.316,1.363,0.847l5.196,10.529c0.501,1.017,1.469,1.72,2.591,1.883l11.62,1.688
	c0.585,0.085,1.044,0.472,1.227,1.035c0.183,0.562,0.039,1.144-0.385,1.558l-8.407,8.195C37.397,29.963,37.027,31.102,37.22,32.22z"
	/>
</svg>
