<?xml version="1.0" encoding="utf-8"?>
<!-- Generator: Adobe Illustrator 16.0.3, SVG Export Plug-In . SVG Version: 6.00 Build 0)  -->
<!DOCTYPE svg PUBLIC "-//W3C//DTD SVG 1.1//EN" "http://www.w3.org/Graphics/SVG/1.1/DTD/svg11.dtd">
<svg version="1.1" id="Capa_1" xmlns="http://www.w3.org/2000/svg" xmlns:xlink="http://www.w3.org/1999/xlink" x="0px" y="0px"
	 width="612px" height="612px" viewBox="0 0 612 612" enable-background="new 0 0 612 612" xml:space="preserve">
<g>
	<path fill="#FFFFFF" d="M305.991,564.293c-1.645,0-3.29-0.482-4.713-1.448C288.975,554.498,0,356.477,0,189.578
		c0-42.738,16.03-78.875,46.359-104.512c27.169-22.96,63.91-35.6,103.468-35.6c55.307,0,127.605,27.295,161.306,102.338
		c32.199-76.34,101.688-104.097,154.88-104.097C538.56,47.707,612,96.438,612,189.578c0,166.904-288.991,364.92-301.297,373.267
		C309.281,563.807,307.637,564.293,305.991,564.293z M149.827,66.252c-64.074,0-133.041,38.592-133.041,123.326
		c0,146.953,251.397,329.493,289.204,356.099c37.808-26.614,289.223-209.2,289.223-356.099c0-60.247-40.436-125.084-129.201-125.084
		c-52.215,0-121.938,29.867-146.584,114.042c-1.036,3.555-4.284,6.005-7.981,6.035c-0.021,0-0.046,0-0.071,0
		c-3.672,0-6.92-2.388-8.011-5.896C277.53,95.695,204.505,66.252,149.827,66.252z"/>
</g>
</svg>
