<?xml version="1.0" encoding="utf-8"?>
<!-- Generator: Adobe Illustrator 16.0.3, SVG Export Plug-In . SVG Version: 6.00 Build 0)  -->
<!DOCTYPE svg PUBLIC "-//W3C//DTD SVG 1.1//EN" "http://www.w3.org/Graphics/SVG/1.1/DTD/svg11.dtd">
<svg version="1.1" id="Layer_1" xmlns="http://www.w3.org/2000/svg" xmlns:xlink="http://www.w3.org/1999/xlink" x="0px" y="0px"
	 width="224px" height="90px" viewBox="0 0 224 90" enable-background="new 0 0 224 90" xml:space="preserve">
<path fill="#F16924" d="M14.799,61.156c2.067-0.051,4.141,0.138,6.198-0.25c0.43-0.081,0.51-0.239,0.481-0.622
	c-0.099-1.284-0.212-2.57-0.249-3.856c-0.137-4.754,0.894-9.275,2.878-13.574c2.515-5.449,6.112-9.985,11.32-13.123
	c2.95-1.778,6.123-2.547,9.568-2.187c2.333,0.244,3.931,1.333,4.687,3.633c1.008,3.069,1.054,6.131,0.197,9.233
	c-0.897,3.243-2.274,6.307-3.464,9.442c-0.266,0.7-0.522,1.404-0.783,2.106c0.044,0.031,0.088,0.062,0.132,0.092
	c0.974-0.903,1.964-1.79,2.919-2.713c3.716-3.593,6.977-7.529,9.039-12.33c1.27-2.955,2.256-5.991,2.027-9.274
	c-0.193-2.762-1.335-5.044-3.596-6.701c-1.959-1.437-4.221-2.027-6.598-2.143c-5.356-0.262-10.467,0.768-15.134,3.434
	c-8.305,4.745-14.286,11.651-18.162,20.342c-2.553,5.724-3.057,11.744-1.955,17.904C14.356,60.857,14.345,61.167,14.799,61.156z"/>
<path fill="#2B9F48" d="M160.561,58.089c-3.243-1.519-6.532-2.94-9.722-4.573c-0.801-0.409-1.567-0.879-2.158-1.578
	c-0.652-0.771-0.691-1.482-0.143-2.334c0.367-0.569,0.861-1.021,1.397-1.419c2.878-2.137,6.074-3.583,9.543-4.479
	c2.036-0.525,4.123-0.688,6.185-1.027c0.566-0.093,0.602-0.271,0.357-0.736c-0.803-1.526-2.616-2.393-4.638-2.196
	c-5.598,0.544-10.495,2.723-14.789,6.316c-0.797,0.667-1.545,1.377-2.08,2.285c-1.295,2.199-0.885,4.499,1.106,6.09
	c0.811,0.647,1.685,1.205,2.594,1.699c2.541,1.384,5.094,2.747,7.639,4.124c0.811,0.438,1.607,0.901,2.301,1.513
	c1.179,1.038,1.238,2.236,0.124,3.344c-0.882,0.877-1.856,1.66-2.987,2.2c-3.48,1.662-6.954,3.34-10.467,4.934
	c-2.696,1.223-5.438,2.354-8.39,2.846c0.045,0.081,0.09,0.163,0.135,0.243c2.244,0.43,4.411,1.096,6.445,2.148
	c0.289,0.149,0.52,0.195,0.827,0.065c2.474-1.046,4.977-2.021,7.403-3.176c3.321-1.582,6.626-3.193,9.557-5.458
	c1.35-1.043,2.677-2.115,3.559-3.618c1.025-1.747,0.858-3.38-0.501-4.874C162.931,59.411,161.8,58.67,160.561,58.089z"/>
<path fill="#F16924" d="M25.69,66.116c11.823-2.068,21.466-7.965,29.361-16.879c0.855-0.966,0.828-0.99-0.021-1.915
	c-0.14-0.152-0.296-0.295-0.412-0.464c-0.281-0.413-0.475-0.313-0.753,0.035c-1.097,1.367-2.334,2.603-3.667,3.74
	c-4.183,3.574-8.996,6.022-14.135,7.877c-6.214,2.241-12.641,3.534-19.187,4.303C11.567,63.437,6.244,63.719,0.9,63.593
	c-0.134-0.024-0.178,0.027-0.133,0.156c0.11,0.031,0.221,0.059,0.329,0.095C9.116,66.536,17.295,67.585,25.69,66.116z"/>
<path fill="#2B9F48" d="M74.437,48.245c-1.558-0.396-3.148-0.326-4.477-0.337c-1.383,0-2.511,0.016-3.638-0.009
	c-0.421-0.009-0.584,0.104-0.66,0.553c-0.654,3.895-1.344,7.785-2.02,11.677c-0.558,3.214-1.102,6.429-1.672,9.64
	c-0.096,0.541-0.04,0.782,0.606,0.747c1.055-0.057,2.116-0.032,3.173-0.007c0.418,0.01,0.59-0.088,0.66-0.546
	c0.293-1.906,0.651-3.803,0.964-5.707c0.077-0.466,0.218-0.683,0.765-0.669c1.196,0.029,2.387-0.119,3.556-0.39
	c2.848-0.657,5.072-2.1,6.176-4.94c0.69-1.776,0.854-3.626,0.628-5.495C78.195,50.238,76.927,48.879,74.437,48.245z M73.353,57.711
	c-0.883,1.761-3.01,2.882-4.987,2.71c-0.41-0.035-0.276-0.243-0.238-0.464c0.359-2.081,0.716-4.163,1.073-6.244
	c0.089-0.52,0.217-1.038,0.256-1.562c0.048-0.637,0.328-0.892,0.959-0.77c0.155,0.03,0.321,0.005,0.546,0.005
	c0.486,0.02,1.034,0.041,1.58,0.141c0.813,0.149,1.246,0.656,1.397,1.419C74.266,54.595,74.111,56.201,73.353,57.711z"/>
<path fill="#2B9F48" d="M136.563,70.515c0.804-0.025,1.612-0.04,2.415,0.005c0.465,0.026,0.63-0.129,0.706-0.574
	c0.917-5.367,1.848-10.733,2.786-16.097c0.067-0.386-0.057-0.473-0.416-0.457c-0.574,0.024-1.155,0.054-1.725-0.006
	c-0.687-0.072-1.212,0.086-1.52,0.741c-0.201,0.429-0.426,0.349-0.722,0.076c-0.532-0.492-1.157-0.816-1.879-0.956
	c-2.769-0.537-5.104,0.249-6.961,2.35c-2.742,3.105-3.252,6.85-2.923,10.789c0.157,1.881,1.056,3.322,2.872,4.037
	c1.892,0.743,3.653,0.422,5.263-0.792c0.621-0.468,0.944-1.181,1.617-1.759c0,0.727,0.011,1.454-0.004,2.181
	C136.066,70.412,136.203,70.526,136.563,70.515z M133.525,67.128c-1.14,0.761-2.304,0.289-2.661-1.038
	c-0.193-0.718-0.206-1.454-0.158-2.296c0.067-1.897,0.397-3.828,1.546-5.532c0.597-0.886,1.331-1.577,2.444-1.752
	c0.515-0.081,1.014,0.002,1.499,0.132c1.047,0.278,1.23,0.57,1.051,1.629c-0.267,1.563-0.417,3.161-0.86,4.673
	C135.898,64.604,135.03,66.124,133.525,67.128z"/>
<path fill="#F16924" d="M60.415,71.333L60.415,71.333c-4.697,0.936-9.422,1.639-14.22,1.742c-3.229,0.07-6.44-0.086-9.588-0.885
	c-2.746-0.697-5.267-1.8-7.102-4.081c-0.27-0.336-0.576-0.201-0.879-0.152c-1.884,0.299-3.767,0.605-5.649,0.911
	c-1.507,0.245-3.014,0.491-4.555,0.742c0.164,0.386,0.449,0.553,0.692,0.746c7.461,5.93,15.975,7.947,25.324,6.723
	c5.794-0.759,11.156-2.828,16.254-5.627C60.599,71.412,60.506,71.373,60.415,71.333z"/>
<path fill="#2B9F48" d="M93.312,66.894c1.303-2.263,1.993-4.676,1.932-7.289c0-0.459,0.031-0.921-0.005-1.378
	c-0.227-2.854-1.999-4.728-4.809-5.077c-0.892-0.11-1.794-0.104-2.687-0.015c-2.419,0.243-4.332,1.337-5.75,3.352
	c-1.786,2.537-2.449,5.375-2.314,8.408c0.104,2.365,0.958,4.382,3.321,5.352C85.873,71.427,90.927,71.035,93.312,66.894z
	 M84.332,66.03c-0.448-1.717-0.251-3.423,0.207-5.106c0.339-1.246,0.782-2.448,1.638-3.456c0.7-0.824,1.561-1.25,2.658-1.199
	c1.023,0.048,1.597,0.499,1.875,1.498c0.169,0.609,0.144,1.23,0.169,1.71c-0.02,1.96-0.451,3.698-1.184,5.345
	c-0.583,1.308-1.401,2.446-2.964,2.726C85.536,67.76,84.642,67.217,84.332,66.03z"/>
<path fill="#2B9F48" d="M192.638,60.032c0-0.438,0.027-0.876-0.004-1.31c-0.21-2.859-1.878-4.662-4.693-5.107
	c-0.848-0.134-1.698-0.124-2.546-0.063c-2.34,0.164-4.287,1.106-5.733,2.995c-2.009,2.621-2.76,5.63-2.589,8.869
	c0.123,2.338,0.996,4.301,3.324,5.28c3.701,1.559,8.252,0.062,10.305-3.378C192.039,65.076,192.695,62.645,192.638,60.032z
	 M188.23,60.026c0.023,1.846-0.419,3.605-1.163,5.272c-0.553,1.238-1.34,2.322-2.787,2.659c-1.293,0.3-2.242-0.246-2.567-1.529
	c-0.479-1.888-0.193-3.741,0.362-5.568c0.329-1.084,0.765-2.115,1.521-2.984c0.368-0.423,0.788-0.773,1.314-0.978
	c1.829-0.712,3.183,0.142,3.316,2.094C188.251,59.336,188.23,59.682,188.23,60.026z"/>
<path fill="#2B9F48" d="M111.685,66.938c1.316-2.255,2.008-4.67,2.034-7.282c-0.036-0.573-0.045-1.15-0.112-1.72
	c-0.314-2.618-1.924-4.304-4.522-4.744c-0.958-0.163-1.928-0.143-2.89-0.06c-2.237,0.193-4.103,1.126-5.482,2.925
	c-2.214,2.887-2.962,6.188-2.534,9.743c0.245,2.03,1.237,3.658,3.234,4.456C104.276,71.401,109.288,71.04,111.685,66.938z
	 M108.703,63.124c-0.381,1.338-0.873,2.614-1.927,3.596c-0.469,0.436-0.997,0.72-1.632,0.827c-1.197,0.203-2.091-0.34-2.422-1.498
	c-0.198-0.692-0.196-1.408-0.233-2.152c0.085-1.994,0.518-3.932,1.561-5.688c0.721-1.215,1.706-2.038,3.24-1.938
	c0.956,0.063,1.554,0.479,1.788,1.42C109.539,59.535,109.212,61.339,108.703,63.124z"/>
<path fill="#2B9F48" d="M220.17,69.812c0.139-1.131,0.292-2.26,0.452-3.482c-0.59,0.214-1.056,0.402-1.534,0.553
	c-1.402,0.438-2.8,0.918-4.31,0.752c-1.296-0.144-2.122-1.085-2.116-2.38c0.002-0.303,0.092-0.389,0.387-0.399
	c0.734-0.025,1.471-0.064,2.202-0.142c1.604-0.168,3.189-0.425,4.629-1.221c2.063-1.142,3.092-3.354,2.695-5.8
	c-0.359-2.215-1.771-3.579-4.192-4.053c-3.495-0.683-6.938,0.974-8.642,4.26c-1.444,2.786-1.774,5.769-1.251,8.848
	c0.416,2.452,1.94,3.848,4.323,4.302c2.416,0.46,4.756,0.109,7.006-0.871C219.99,70.103,220.142,70.042,220.17,69.812z
	 M212.806,61.587c0.234-1.293,0.547-2.557,1.361-3.63c0.459-0.605,1.054-1.004,1.818-1.136c1.462-0.252,2.257,0.411,2.247,1.886
	c-0.011,1.42-0.66,2.331-2.017,2.776c-0.989,0.324-2.026,0.36-3.051,0.473C212.868,61.988,212.747,61.909,212.806,61.587z"/>
<path fill="#2B9F48" d="M172.295,67.62c-1.302,0.162-1.623-0.206-1.4-1.517c0.478-2.809,0.98-5.612,1.436-8.425
	c0.101-0.621,0.285-0.884,0.979-0.84c0.838,0.053,1.925,0.372,2.47-0.125c0.559-0.51,0.573-1.595,0.88-2.408
	c0.177-0.469-0.021-0.489-0.389-0.479c-0.644,0.017-1.288,0.004-1.933,0.004c-1.36,0-1.35,0.002-1.095-1.368
	c0.229-1.235,0.431-2.475,0.656-3.783c-1.41,0.445-2.718,0.865-4.031,1.27c-0.289,0.089-0.378,0.279-0.442,0.546
	c-0.229,0.937-0.496,1.863-0.716,2.802c-0.092,0.396-0.249,0.575-0.687,0.545c-0.618-0.042-1.243,0.013-1.862-0.02
	c-0.356-0.018-0.483,0.12-0.532,0.449c-0.124,0.84-0.272,1.676-0.425,2.592c0.854,0,1.611,0.01,2.368-0.005
	c0.341-0.007,0.485,0.034,0.396,0.453c-0.212,0.987-0.358,1.989-0.527,2.985c-0.374,2.196-0.795,4.387-1.106,6.592
	c-0.318,2.262,0.752,3.902,2.73,4.251c1.713,0.301,3.385-0.069,5.041-0.487c0.149-0.038,0.248-0.128,0.274-0.274
	c0.19-1.074,0.376-2.15,0.568-3.257C174.008,67.301,173.158,67.513,172.295,67.62z"/>
<path fill="#2B9F48" d="M119.857,53.385c-0.505-0.016-0.645,0.15-0.727,0.635c-0.854,5.1-1.729,10.196-2.622,15.29
	c-0.39,2.229-1.334,3.204-3.456,3.664c-0.381,0.082-0.772,0.16-1.159,0.163c-0.382,0.003-0.521,0.166-0.576,0.512
	c-0.132,0.84-0.272,1.679-0.437,2.513c-0.076,0.39,0.067,0.455,0.423,0.455c0.9-0.001,1.794-0.059,2.686-0.164
	c3.818-0.448,5.72-2.101,6.684-5.817c0.41-1.583,0.612-3.205,0.89-4.812c0.712-4.12,1.408-8.242,2.122-12.426
	C122.384,53.397,121.119,53.424,119.857,53.385z"/>
<path fill="#2B9F48" d="M207.421,58.181c0.2-1.21,0.361-2.393,0.605-3.558c0.092-0.438-0.037-0.618-0.391-0.794
	c-1.602-0.795-3.886-0.141-4.8,1.396c-0.25,0.421-0.479,0.854-0.778,1.389c-0.121-0.839-0.229-1.542-0.323-2.248
	c-0.047-0.358-0.148-0.573-0.594-0.547c-0.733,0.044-1.474,0.042-2.208,0.001c-0.434-0.025-0.545,0.174-0.609,0.537
	c-0.941,5.36-1.885,10.722-2.85,16.079c-0.074,0.413-0.007,0.513,0.405,0.505c1.195-0.021,2.393-0.029,3.588,0.004
	c0.417,0.012,0.559-0.135,0.622-0.518c0.318-1.902,0.641-3.805,0.99-5.702c0.315-1.704,0.416-3.466,1.477-4.964
	c0.714-1.009,1.477-1.896,2.804-2.004C206.057,57.699,206.722,57.891,207.421,58.181z"/>
<path fill="#F16924" d="M47.338,17.827c3.584-1.051,6.766-0.345,9.527,2.18c1.795,1.643,3.057,3.655,4.005,5.878
	c0.047-0.045,0.095-0.09,0.142-0.135c-0.428-2.625-1.083-5.172-2.613-7.405c-1.014-1.479-2.341-2.533-4.159-2.813
	c-2.966-0.458-5.381,0.851-7.798,2.441C46.839,18.074,47.082,17.902,47.338,17.827z"/>
<path fill="#F16924" d="M121.598,51.044c1.513-0.009,2.685-1.218,2.662-2.745c-0.022-1.533-1.142-2.638-2.678-2.641
	c-1.549-0.003-2.709,1.15-2.707,2.692C118.876,49.857,120.084,51.053,121.598,51.044z"/>
<path fill="#414142" d="M37.963,37.167c-0.563,0.406-0.914,0.94-1.042,1.639c-0.084,0.458,0.062,0.659,0.504,0.781
	c1.128,0.312,2.179,0.086,3.214-0.361c1.138-0.491,2.27-1.01,3.624-0.928c-0.107-0.479-0.381-0.725-0.66-0.956
	C42.185,36.174,39.456,36.091,37.963,37.167z"/>
<path fill="#F16924" d="M61.017,19.945c0.211-0.204,0.042-0.48,0.136-0.706c-0.008-0.138-0.01-0.276-0.026-0.413
	c-0.373-3.114-2.328-4.927-5.329-4.937c-1.3-0.004-2.546,0.293-3.77,0.7c0.091,0.048,0.182,0.096,0.272,0.145
	C56.386,14.497,59.301,16.218,61.017,19.945z"/>
<path fill="#F16924" d="M60.242,14.132c0.971-0.299,1.849-1.486,1.853-2.506c0.004-0.976-0.716-1.534-1.645-1.275
	c-1.01,0.282-1.899,1.389-1.949,2.429C58.448,13.868,59.2,14.453,60.242,14.132z"/>
<path fill="#424243" d="M42.543,34.504c-2.375-0.651-4.471,0.078-6.395,1.465c-0.254,0.183-0.423,0.46-0.234,0.777
	c0.202,0.339,0.554,0.337,0.854,0.194c0.474-0.227,0.927-0.5,1.372-0.781c2.14-1.355,4.267-1.449,6.412,0.029
	C44.16,35.285,43.428,34.747,42.543,34.504z"/>
<path fill="#F68E5A" d="M61.017,19.945c0.044,0.155,0.055,0.329,0.245,0.451c0-0.417,0.073-0.798-0.108-1.157
	C61.059,19.464,61.229,19.741,61.017,19.945z"/>
<path fill="#F7AE89" d="M52.301,14.734c-0.091-0.048-0.182-0.096-0.272-0.145c-0.167,0.032-0.334,0.062-0.448,0.233
	C51.842,14.869,52.081,14.881,52.301,14.734z"/>
<path fill="#95CD85" d="M136.127,75.185c0.031,0.199,0.26,0.19,0.441,0.156c-0.045-0.08-0.09-0.162-0.135-0.243
	C136.314,75.087,136.104,75.032,136.127,75.185z"/>
<path fill="#F8AA81" d="M61.094,26.339c0.065-0.222,0.067-0.416-0.081-0.589c-0.047,0.045-0.095,0.09-0.142,0.135
	C60.918,26.043,60.932,26.22,61.094,26.339z"/>
<path fill="#F7915F" d="M60.924,71.284c-0.153-0.168-0.347-0.073-0.51,0.049l0,0c0.092,0.04,0.184,0.079,0.276,0.119
	C60.789,71.413,60.981,71.347,60.924,71.284z"/>
</svg>
