<?xml version="1.0" encoding="utf-8"?>
<!-- Generator: Adobe Illustrator 16.0.3, SVG Export Plug-In . SVG Version: 6.00 Build 0)  -->
<!DOCTYPE svg PUBLIC "-//W3C//DTD SVG 1.1//EN" "http://www.w3.org/Graphics/SVG/1.1/DTD/svg11.dtd">
<svg version="1.1" id="Layer_1" xmlns="http://www.w3.org/2000/svg" xmlns:xlink="http://www.w3.org/1999/xlink" x="0px" y="0px"
	 width="35px" height="35px" viewBox="0 0 35 35" enable-background="new 0 0 35 35" xml:space="preserve">
<g>
	<path fill="#FFFFFF" d="M32.093,22.146c0.25-1.082,0.384-2.186,0.384-3.289c0-5.122-2.608-9.787-6.978-12.477
		c-0.267-0.163-0.612-0.081-0.775,0.184c-0.163,0.265-0.08,0.611,0.185,0.775c4.033,2.484,6.442,6.789,6.442,11.518
		c0,0.973-0.113,1.943-0.323,2.898c-0.26-0.053-0.528-0.082-0.804-0.082c-2.174,0-3.942,1.769-3.942,3.942s1.769,3.942,3.942,3.942
		s3.942-1.769,3.942-3.942C34.166,24.117,33.326,22.813,32.093,22.146z M30.224,28.432c-1.553,0-2.815-1.264-2.815-2.816
		s1.263-2.816,2.815-2.816s2.816,1.264,2.816,2.816S31.776,28.432,30.224,28.432z"/>
	<path fill="#FFFFFF" d="M22.998,31.35c-1.642,0.68-3.379,1.024-5.165,1.024c-3.596,0-7.055-1.451-9.584-3.994
		c0.702-0.713,1.136-1.688,1.136-2.765c0-2.174-1.768-3.942-3.942-3.942S1.5,23.441,1.5,25.615s1.768,3.942,3.942,3.942
		c0.691,0,1.34-0.18,1.904-0.493c2.748,2.822,6.54,4.436,10.486,4.436c1.935,0,3.817-0.373,5.597-1.11
		c0.287-0.118,0.424-0.448,0.305-0.735S23.285,31.23,22.998,31.35z M2.626,25.615c0-1.553,1.263-2.816,2.816-2.816
		s2.816,1.264,2.816,2.816s-1.263,2.816-2.816,2.816S2.626,27.168,2.626,25.615z"/>
	<path fill="#FFFFFF" d="M3.752,18.413c0.014,0.002,0.027,0.002,0.041,0.002c0.293,0,0.54-0.226,0.561-0.523
		c0.401-5.683,4.273-10.431,9.699-12.004c0.481,1.634,1.992,2.832,3.78,2.832c2.174,0,3.942-1.769,3.942-3.942
		s-1.769-3.942-3.942-3.942c-2.169,0-3.934,1.761-3.942,3.928c-5.959,1.66-10.222,6.84-10.66,13.05
		C3.209,18.122,3.443,18.392,3.752,18.413z M17.833,1.96c1.553,0,2.815,1.263,2.815,2.816s-1.263,2.816-2.815,2.816
		s-2.816-1.264-2.816-2.816S16.28,1.96,17.833,1.96z"/>
</g>
</svg>
