<?xml version="1.0" encoding="utf-8"?>
<!-- Generator: Adobe Illustrator 16.0.3, SVG Export Plug-In . SVG Version: 6.00 Build 0)  -->
<!DOCTYPE svg PUBLIC "-//W3C//DTD SVG 1.1//EN" "http://www.w3.org/Graphics/SVG/1.1/DTD/svg11.dtd">
<svg version="1.1" id="Layer_1" xmlns="http://www.w3.org/2000/svg" xmlns:xlink="http://www.w3.org/1999/xlink" x="0px" y="0px"
	 width="85px" height="85px" viewBox="0 0 85 85" enable-background="new 0 0 85 85" xml:space="preserve">
<g>
	<path fill-rule="evenodd" clip-rule="evenodd" fill="#F4B11A" d="M8.835,72.308l58.949-48.41c0.596-0.51,3.825,3.4,3.23,3.91
		l-58.95,48.41C11.427,76.728,8.24,72.817,8.835,72.308L8.835,72.308z"/>
	<path fill-rule="evenodd" clip-rule="evenodd" fill="#BE2126" d="M11.598,70.055l1.53-1.275c-0.595,0.511,2.635,4.421,3.23,3.91
		l-1.53,1.275C14.232,74.433,11.002,70.522,11.598,70.055L11.598,70.055z"/>
	<path fill-rule="evenodd" clip-rule="evenodd" fill="#BE2126" d="M25.24,58.877l1.53-1.275c-0.638,0.511,2.593,4.421,3.188,3.91
		l-1.53,1.275C27.833,63.254,24.603,59.344,25.24,58.877L25.24,58.877z"/>
	<path fill-rule="evenodd" clip-rule="evenodd" fill="#BE2126" d="M27.918,56.667l1.53-1.275c-0.595,0.51,2.592,4.42,3.188,3.91
		l-1.53,1.275C30.51,61.044,27.281,57.135,27.918,56.667L27.918,56.667z"/>
	<path fill-rule="evenodd" clip-rule="evenodd" fill="#BE2126" d="M63.322,27.596l1.529-1.275c-0.638,0.51,2.593,4.42,3.188,3.91
		l-1.529,1.275C65.914,31.974,62.685,28.063,63.322,27.596L63.322,27.596z"/>
	<path fill-rule="evenodd" clip-rule="evenodd" fill="#F3A51D" d="M68.082,24.153c0.128-0.127,0.85,0.552,1.615,1.445
		c0.723,0.935,1.232,1.785,1.104,1.87c-0.085,0.085-0.808-0.552-1.572-1.487S67.954,24.238,68.082,24.153L68.082,24.153z"/>
	<path fill-rule="evenodd" clip-rule="evenodd" fill="#FBCF07" d="M27.621,74.007L65.787,7.96c0.382-0.68,4.76,1.828,4.377,2.508
		l-38.124,66.09C31.616,77.237,27.238,74.688,27.621,74.007L27.621,74.007z"/>
	<path fill-rule="evenodd" clip-rule="evenodd" fill="#BE2126" d="M29.448,70.904l0.977-1.699c-0.382,0.68,3.995,3.188,4.378,2.507
		l-0.978,1.743C33.443,74.135,29.023,71.585,29.448,70.904L29.448,70.904z"/>
	<path fill-rule="evenodd" clip-rule="evenodd" fill="#BE2126" d="M38.246,55.646l0.978-1.7c-0.383,0.681,3.995,3.188,4.378,2.508
		l-0.979,1.743C42.24,58.877,37.864,56.327,38.246,55.646L38.246,55.646z"/>
	<path fill-rule="evenodd" clip-rule="evenodd" fill="#BE2126" d="M39.988,52.629l0.978-1.7c-0.383,0.68,3.995,3.188,4.377,2.551
		l-0.978,1.7C43.983,55.859,39.606,53.31,39.988,52.629L39.988,52.629z"/>
	<path fill-rule="evenodd" clip-rule="evenodd" fill="#BE2126" d="M62.896,12.975l0.978-1.742c-0.383,0.68,3.995,3.23,4.378,2.55
		l-0.978,1.743C66.892,16.205,62.472,13.655,62.896,12.975L62.896,12.975z"/>
	<path fill-rule="evenodd" clip-rule="evenodd" fill="#F3A51D" d="M66.169,8.087c0.043-0.17,0.978,0.213,1.998,0.808
		c1.02,0.595,1.785,1.19,1.7,1.318c-0.043,0.17-0.978-0.213-1.998-0.808C66.85,8.81,66.084,8.215,66.169,8.087L66.169,8.087z"/>
</g>
</svg>
