<?xml version="1.0" encoding="utf-8"?>
<!-- Generator: Adobe Illustrator 16.0.3, SVG Export Plug-In . SVG Version: 6.00 Build 0)  -->
<!DOCTYPE svg PUBLIC "-//W3C//DTD SVG 1.1//EN" "http://www.w3.org/Graphics/SVG/1.1/DTD/svg11.dtd">
<svg version="1.1" id="Layer_1" xmlns="http://www.w3.org/2000/svg" xmlns:xlink="http://www.w3.org/1999/xlink" x="0px" y="0px"
	 width="725px" height="247px" viewBox="0 0 725 247" enable-background="new 0 0 725 247" xml:space="preserve">
<path fill="#F16924" d="M46.415,149.253c5.728-0.14,11.474,0.383,17.176-0.693c1.193-0.225,1.415-0.662,1.333-1.724
	c-0.272-3.56-0.587-7.121-0.69-10.688c-0.378-13.173,2.478-25.702,7.976-37.615c6.969-15.1,16.938-27.67,31.368-36.365
	c8.177-4.927,16.967-7.06,26.516-6.061c6.464,0.676,10.892,3.694,12.986,10.067c2.794,8.506,2.921,16.99,0.544,25.586
	c-2.485,8.987-6.3,17.479-9.598,26.164c-0.737,1.941-1.448,3.893-2.17,5.839c0.122,0.085,0.244,0.17,0.366,0.253
	c2.699-2.502,5.443-4.959,8.088-7.517c10.298-9.957,19.333-20.865,25.048-34.167c3.518-8.189,6.253-16.603,5.617-25.701
	c-0.535-7.654-3.7-13.978-9.965-18.57c-5.43-3.981-11.696-5.617-18.284-5.939c-14.843-0.727-29.004,2.127-41.939,9.517
	C77.774,54.787,61.201,73.925,50.459,98.011c-7.074,15.86-8.471,32.546-5.416,49.615C45.186,148.425,45.156,149.282,46.415,149.253z
	"/>
<path fill="#2B9F48" d="M450.343,140.754c-8.988-4.209-18.102-8.151-26.941-12.674c-2.218-1.136-4.342-2.438-5.979-4.375
	c-1.808-2.138-1.915-4.106-0.395-6.466c1.017-1.58,2.387-2.828,3.873-3.933c7.974-5.921,16.831-9.93,26.444-12.411
	c5.643-1.456,11.425-1.906,17.137-2.845c1.572-0.258,1.668-0.751,0.99-2.039c-2.223-4.229-7.247-6.63-12.85-6.085
	c-15.513,1.507-29.085,7.544-40.983,17.503c-2.209,1.849-4.281,3.816-5.764,6.333c-3.589,6.094-2.453,12.467,3.066,16.876
	c2.244,1.793,4.667,3.337,7.186,4.708c7.043,3.835,14.116,7.613,21.17,11.429c2.244,1.213,4.455,2.498,6.377,4.191
	c3.266,2.877,3.43,6.196,0.343,9.266c-2.443,2.432-5.146,4.603-8.279,6.098c-9.646,4.605-19.271,9.257-29.005,13.671
	c-7.472,3.389-15.069,6.525-23.249,7.888c0.125,0.225,0.248,0.449,0.374,0.675c6.219,1.188,12.223,3.034,17.86,5.951
	c0.801,0.415,1.439,0.543,2.292,0.183c6.854-2.898,13.791-5.6,20.516-8.802c9.204-4.385,18.363-8.849,26.484-15.124
	c3.739-2.89,7.418-5.862,9.861-10.026c2.841-4.842,2.378-9.367-1.391-13.507C456.911,144.416,453.776,142.362,450.343,140.754z"/>
<path fill="#F16924" d="M76.596,162.997c32.764-5.732,59.485-22.072,81.364-46.772c2.372-2.678,2.295-2.745-0.059-5.309
	c-0.388-0.422-0.821-0.816-1.142-1.286c-0.78-1.144-1.316-0.866-2.087,0.097c-3.04,3.79-6.469,7.213-10.162,10.368
	c-11.591,9.902-24.927,16.688-39.17,21.826c-17.22,6.212-35.029,9.794-53.169,11.925c-14.712,1.728-29.463,2.51-44.273,2.158
	c-0.372-0.067-0.494,0.076-0.368,0.434c0.305,0.087,0.613,0.162,0.913,0.264C30.665,164.16,53.33,167.069,76.596,162.997z"/>
<path fill="#2B9F48" d="M211.679,113.476c-4.316-1.097-8.724-0.905-12.405-0.936c-3.834,0-6.959,0.045-10.081-0.023
	c-1.167-0.025-1.619,0.285-1.828,1.53c-1.814,10.795-3.726,21.573-5.597,32.359c-1.546,8.905-3.054,17.815-4.635,26.714
	c-0.266,1.497-0.11,2.166,1.679,2.068c2.924-0.157,5.863-0.089,8.794-0.019c1.158,0.028,1.634-0.243,1.829-1.513
	c0.811-5.282,1.803-10.538,2.669-15.813c0.213-1.291,0.604-1.894,2.121-1.855c3.315,0.083,6.615-0.331,9.854-1.078
	c7.891-1.823,14.056-5.82,17.115-13.691c1.913-4.923,2.366-10.048,1.742-15.228C222.094,118.997,218.581,115.229,211.679,113.476z
	 M208.676,139.705c-2.448,4.879-8.342,7.985-13.82,7.51c-1.136-0.098-0.766-0.674-0.661-1.286
	c0.997-5.766,1.984-11.535,2.973-17.302c0.247-1.441,0.601-2.877,0.71-4.328c0.133-1.764,0.908-2.47,2.658-2.132
	c0.43,0.084,0.889,0.013,1.514,0.013c1.348,0.053,2.864,0.113,4.379,0.391c2.254,0.414,3.452,1.818,3.871,3.932
	C211.207,131.07,210.776,135.52,208.676,139.705z"/>
<path fill="#2B9F48" d="M383.843,175.188c2.229-0.07,4.467-0.112,6.692,0.014c1.288,0.071,1.745-0.356,1.956-1.594
	c2.54-14.873,5.12-29.742,7.721-44.605c0.188-1.068-0.156-1.31-1.15-1.268c-1.593,0.068-3.202,0.149-4.779-0.015
	c-1.904-0.2-3.36,0.237-4.211,2.053c-0.559,1.19-1.181,0.968-2,0.211c-1.477-1.362-3.207-2.261-5.207-2.648
	c-7.672-1.487-14.147,0.691-19.29,6.513c-7.601,8.604-9.011,18.979-8.1,29.896c0.435,5.213,2.923,9.207,7.959,11.187
	c5.241,2.06,10.123,1.172,14.583-2.192c1.72-1.297,2.617-3.271,4.482-4.874c0,2.014,0.03,4.028-0.012,6.042
	C382.466,174.903,382.846,175.22,383.843,175.188z M375.425,165.802c-3.16,2.108-6.384,0.801-7.375-2.878
	c-0.535-1.989-0.572-4.027-0.438-6.361c0.187-5.257,1.101-10.607,4.282-15.331c1.653-2.456,3.689-4.37,6.773-4.854
	c1.427-0.224,2.809,0.006,4.155,0.364c2.9,0.772,3.408,1.58,2.91,4.514c-0.736,4.331-1.154,8.762-2.383,12.949
	C381.999,158.808,379.596,163.019,375.425,165.802z"/>
<path fill="#F16924" d="M172.822,177.454L172.822,177.454c-13.015,2.593-26.11,4.542-39.407,4.829
	c-8.949,0.193-17.846-0.239-26.57-2.453c-7.609-1.932-14.597-4.986-19.681-11.31c-0.748-0.93-1.597-0.556-2.437-0.422
	c-5.22,0.828-10.438,1.679-15.655,2.526c-4.177,0.678-8.352,1.361-12.623,2.057c0.455,1.069,1.246,1.53,1.919,2.066
	c20.676,16.431,44.269,22.022,70.177,18.63c16.057-2.104,30.914-7.838,45.043-15.594
	C173.333,177.674,173.077,177.564,172.822,177.454z"/>
<path fill="#2B9F48" d="M263.987,165.151c3.611-6.27,5.523-12.958,5.352-20.198c0-1.273,0.086-2.554-0.015-3.818
	c-0.627-7.907-5.538-13.102-13.327-14.069c-2.471-0.307-4.971-0.289-7.445-0.04c-6.706,0.673-12.005,3.703-15.933,9.285
	c-4.948,7.031-6.786,14.896-6.414,23.303c0.29,6.554,2.656,12.143,9.202,14.83C243.372,177.714,257.376,176.63,263.987,165.151z
	 M239.101,162.76c-1.242-4.759-0.695-9.485,0.574-14.15c0.94-3.455,2.168-6.786,4.539-9.579c1.938-2.283,4.326-3.462,7.365-3.321
	c2.836,0.133,4.425,1.383,5.194,4.152c0.469,1.686,0.399,3.407,0.468,4.737c-0.054,5.43-1.249,10.248-3.28,14.811
	c-1.614,3.623-3.882,6.779-8.214,7.552C242.438,167.553,239.959,166.048,239.101,162.76z"/>
<path fill="#2B9F48" d="M539.234,146.137c0-1.21,0.075-2.426-0.012-3.628c-0.583-7.924-5.203-12.918-13.005-14.153
	c-2.348-0.37-4.708-0.343-7.055-0.177c-6.486,0.455-11.883,3.067-15.89,8.3c-5.565,7.266-7.646,15.601-7.175,24.578
	c0.341,6.48,2.762,11.919,9.214,14.635c10.255,4.316,22.865,0.17,28.555-9.362C537.575,160.116,539.394,153.377,539.234,146.137z
	 M527.021,146.123c0.065,5.114-1.159,9.99-3.222,14.61c-1.531,3.431-3.714,6.436-7.724,7.367c-3.584,0.833-6.214-0.683-7.115-4.236
	c-1.328-5.233-0.537-10.368,1.002-15.431c0.913-3.005,2.12-5.863,4.218-8.271c1.021-1.172,2.185-2.144,3.642-2.709
	c5.069-1.972,8.819,0.393,9.19,5.804C527.076,144.208,527.021,145.168,527.021,146.123z"/>
<path fill="#2B9F48" d="M314.899,165.276c3.649-6.247,5.565-12.94,5.636-20.181c-0.099-1.59-0.123-3.188-0.312-4.765
	c-0.87-7.257-5.331-11.928-12.531-13.148c-2.656-0.45-5.344-0.395-8.009-0.164c-6.199,0.535-11.369,3.12-15.192,8.104
	c-6.137,8-8.208,17.146-7.021,27.001c0.678,5.625,3.429,10.138,8.962,12.348C294.369,177.644,308.259,176.643,314.899,165.276z
	 M306.638,154.706c-1.056,3.708-2.42,7.245-5.341,9.964c-1.299,1.208-2.762,1.995-4.521,2.293c-3.319,0.563-5.795-0.94-6.713-4.151
	c-0.55-1.92-0.542-3.903-0.646-5.966c0.236-5.525,1.433-10.893,4.324-15.764c1.998-3.365,4.726-5.646,8.979-5.37
	c2.649,0.172,4.305,1.329,4.955,3.935C308.953,144.762,308.047,149.76,306.638,154.706z"/>
<path fill="#2B9F48" d="M615.53,173.239c0.385-3.134,0.81-6.264,1.254-9.651c-1.636,0.593-2.927,1.115-4.252,1.53
	c-3.887,1.217-7.76,2.546-11.943,2.084c-3.592-0.396-5.879-3.005-5.863-6.593c0.005-0.839,0.253-1.078,1.071-1.106
	c2.036-0.073,4.076-0.181,6.102-0.394c4.445-0.467,8.838-1.178,12.828-3.385c5.719-3.162,8.566-9.293,7.468-16.07
	c-0.994-6.139-4.905-9.919-11.616-11.229c-9.686-1.893-19.227,2.695-23.947,11.803c-4.001,7.721-4.916,15.985-3.468,24.519
	c1.154,6.797,5.379,10.663,11.981,11.921c6.693,1.275,13.179,0.302,19.414-2.414C615.033,174.045,615.452,173.876,615.53,173.239z
	 M595.122,150.446c0.65-3.584,1.517-7.085,3.772-10.06c1.272-1.679,2.922-2.782,5.04-3.147c4.051-0.697,6.254,1.14,6.226,5.227
	c-0.028,3.934-1.829,6.461-5.588,7.692c-2.739,0.899-5.615,1-8.454,1.312C595.297,151.56,594.961,151.34,595.122,150.446z"/>
<path fill="#2B9F48" d="M482.861,167.166c-3.607,0.449-4.499-0.572-3.882-4.204c1.322-7.782,2.718-15.554,3.979-23.345
	c0.278-1.721,0.789-2.45,2.714-2.329c2.323,0.146,5.335,1.032,6.845-0.346c1.548-1.411,1.589-4.42,2.438-6.674
	c0.489-1.299-0.06-1.356-1.076-1.33c-1.784,0.047-3.569,0.014-5.354,0.014c-3.77,0-3.74,0.005-3.035-3.794
	c0.635-3.42,1.193-6.856,1.819-10.482c-3.907,1.234-7.532,2.398-11.173,3.517c-0.801,0.246-1.046,0.775-1.227,1.513
	c-0.634,2.596-1.372,5.165-1.981,7.766c-0.256,1.094-0.69,1.592-1.903,1.51c-1.714-0.116-3.444,0.034-5.161-0.055
	c-0.987-0.05-1.338,0.334-1.473,1.243c-0.347,2.328-0.758,4.646-1.178,7.183c2.365,0,4.464,0.029,6.561-0.013
	c0.946-0.019,1.346,0.095,1.097,1.256c-0.588,2.735-0.991,5.513-1.461,8.273c-1.037,6.087-2.203,12.155-3.065,18.267
	c-0.884,6.268,2.082,10.814,7.567,11.779c4.746,0.834,9.377-0.19,13.967-1.351c0.414-0.104,0.688-0.354,0.762-0.759
	c0.528-2.979,1.042-5.96,1.575-9.026C487.608,166.281,485.252,166.866,482.861,167.166z"/>
<path fill="#2B9F48" d="M337.549,127.717c-1.401-0.044-1.789,0.416-2.014,1.76c-2.369,14.132-4.793,28.255-7.266,42.369
	c-1.083,6.178-3.698,8.88-9.579,10.153c-1.056,0.229-2.139,0.446-3.211,0.454c-1.057,0.008-1.443,0.46-1.594,1.417
	c-0.368,2.327-0.754,4.653-1.209,6.964c-0.212,1.079,0.186,1.262,1.171,1.261c2.494-0.002,4.97-0.163,7.442-0.454
	c10.583-1.244,15.852-5.82,18.521-16.122c1.137-4.385,1.696-8.88,2.465-13.332c1.974-11.417,3.904-22.842,5.88-34.434
	C344.548,127.753,341.046,127.826,337.549,127.717z"/>
<path fill="#2B9F48" d="M580.2,141.006c0.554-3.351,1.003-6.629,1.679-9.858c0.254-1.213-0.104-1.712-1.083-2.198
	c-4.438-2.202-10.768-0.39-13.301,3.865c-0.693,1.168-1.329,2.369-2.157,3.848c-0.336-2.322-0.637-4.271-0.895-6.228
	c-0.13-0.994-0.413-1.59-1.647-1.516c-2.032,0.121-4.083,0.116-6.116,0.002c-1.203-0.069-1.513,0.48-1.689,1.487
	c-2.609,14.857-5.224,29.714-7.896,44.561c-0.206,1.143-0.02,1.419,1.121,1.398c3.314-0.062,6.632-0.082,9.944,0.011
	c1.155,0.032,1.546-0.374,1.723-1.435c0.882-5.272,1.776-10.544,2.745-15.801c0.873-4.724,1.151-9.605,4.092-13.757
	c1.979-2.796,4.092-5.254,7.769-5.555C576.421,139.674,578.263,140.203,580.2,141.006z"/>
<path fill="#F16924" d="M136.586,29.18c9.933-2.913,18.75-0.955,26.4,6.042c4.976,4.552,8.471,10.129,11.1,16.29
	c0.131-0.125,0.262-0.25,0.394-0.375c-1.187-7.274-3.001-14.333-7.241-20.522c-2.809-4.099-6.487-7.018-11.526-7.796
	c-8.219-1.269-14.912,2.359-21.61,6.764C135.201,29.864,135.876,29.388,136.586,29.18z"/>
<path fill="#F16924" d="M342.371,121.23c4.191-0.026,7.439-3.375,7.377-7.608c-0.062-4.249-3.166-7.309-7.421-7.317
	c-4.291-0.009-7.506,3.189-7.502,7.46C334.829,117.942,338.177,121.254,342.371,121.23z"/>
<path fill="#414142" d="M110.606,82.774c-1.561,1.125-2.532,2.607-2.887,4.543c-0.234,1.27,0.171,1.825,1.398,2.165
	c3.126,0.865,6.038,0.238,8.908-1c3.154-1.361,6.29-2.8,10.042-2.572c-0.297-1.325-1.055-2.009-1.83-2.647
	C122.305,80.023,114.743,79.792,110.606,82.774z"/>
<path fill="#010101" d="M637.4,125.738c0.045-3.605,0.022-7.211,0.022-10.818c0.12-0.013,0.242-0.026,0.363-0.04
	c1.643,3.706,3.271,7.417,4.948,11.106c0.235,0.516,0.193,1.395,1.102,1.348c0.75-0.04,0.754-0.792,0.979-1.268
	c0.708-1.49,1.337-3.02,2.008-4.529c1.013-2.278,2.036-4.551,3.056-6.826c0.229,3.788,0.22,7.464,0.237,11.142
	c0.003,0.684-0.337,1.576,0.995,1.528c1.234-0.045,0.841-0.89,0.845-1.481c0.027-4.268,0.047-8.537-0.022-12.804
	c-0.009-0.592,0.662-1.626-0.658-1.816c-1.112-0.159-1.816,0.11-2.316,1.315c-1.588,3.831-3.344,7.592-5.033,11.375
	c-0.549-0.185-0.518-0.638-0.663-0.966c-1.562-3.545-3.174-7.07-4.628-10.659c-0.507-1.252-1.38-1.067-2.304-1.061
	c-1.242,0.009-0.744,0.98-0.748,1.543c-0.04,4.331-0.034,8.664-0.01,12.995c0.003,0.66-0.399,1.596,0.961,1.556
	C637.921,127.337,637.392,126.353,637.4,125.738z"/>
<path fill="#F16924" d="M174.492,35.049c0.585-0.563,0.117-1.33,0.377-1.957c-0.023-0.381-0.027-0.764-0.073-1.142
	c-1.032-8.629-6.452-13.653-14.767-13.682c-3.603-0.013-7.054,0.813-10.448,1.94c0.252,0.134,0.504,0.267,0.755,0.401
	C161.659,19.952,169.736,24.722,174.492,35.049z"/>
<path fill="#F16924" d="M172.343,18.941c2.691-0.828,5.124-4.118,5.136-6.945c0.012-2.703-1.985-4.25-4.559-3.533
	c-2.8,0.78-5.263,3.848-5.401,6.729C167.373,18.21,169.457,19.83,172.343,18.941z"/>
<path fill="#424243" d="M123.296,75.395c-6.581-1.804-12.389,0.217-17.72,4.059c-0.703,0.506-1.172,1.276-0.649,2.153
	c0.559,0.938,1.536,0.936,2.368,0.537c1.313-0.628,2.57-1.385,3.801-2.165c5.928-3.756,11.822-4.015,17.767,0.081
	C127.777,77.559,125.749,76.067,123.296,75.395z"/>
<path fill="#414142" d="M626.647,168.322c-2.446,0.009-4.32,1.913-4.319,4.389c0.001,2.457,1.908,4.404,4.316,4.41
	c2.427,0.005,4.276-1.903,4.279-4.419C630.926,170.122,629.16,168.313,626.647,168.322z"/>
<path fill="#040404" d="M632.161,111.273c-3.055,0.01-6.108,0.005-9.162,0.004c-0.531,0-0.985-0.007-1.004,0.764
	c-0.021,0.817,0.388,0.96,1.055,0.941c0.762-0.021,1.532,0.053,2.288-0.018c1.02-0.096,1.321,0.311,1.287,1.301
	c-0.066,1.97-0.02,3.944-0.02,5.917c0,1.972,0.023,3.944-0.012,5.916c-0.014,0.797,0.044,1.303,1.082,1.29
	c1.098-0.014,0.838-0.712,0.841-1.292c0.013-3.054,0.007-6.107,0.007-9.161c0-3.662-0.002-3.683,3.572-3.94
	c0.684-0.049,1.047-0.146,1.038-0.944C633.126,111.292,632.716,111.271,632.161,111.273z"/>
<path fill="#F68E5A" d="M174.492,35.049c0.124,0.429,0.153,0.911,0.678,1.25c0-1.157,0.204-2.212-0.3-3.207
	C174.608,33.719,175.077,34.485,174.492,35.049z"/>
<path fill="#F7AE89" d="M150.337,20.609c-0.251-0.134-0.503-0.267-0.755-0.401c-0.461,0.088-0.925,0.171-1.24,0.645
	C149.067,20.984,149.729,21.016,150.337,20.609z"/>
<path fill="#95CD85" d="M382.635,188.127c0.087,0.552,0.719,0.527,1.223,0.436c-0.126-0.226-0.249-0.45-0.374-0.675
	C383.152,187.858,382.569,187.705,382.635,188.127z"/>
<path fill="#F8AA81" d="M174.705,52.769c0.18-0.615,0.185-1.152-0.225-1.632c-0.131,0.124-0.263,0.25-0.394,0.375
	C174.219,51.95,174.256,52.438,174.705,52.769z"/>
<path fill="#F7915F" d="M174.234,177.319c-0.424-0.466-0.962-0.204-1.412,0.135h0c0.255,0.11,0.511,0.22,0.767,0.33
	C173.858,177.676,174.392,177.492,174.234,177.319z"/>
<text transform="matrix(1 0 0 1 43.5176 233.6416)" fill="#595A5C" font-family="'MyriadPro-Regular'" font-size="35.1019" letter-spacing="5">One Stop Shop for All Pooja Needs</text>
<text transform="matrix(1 0 0 1 633.8379 176.1074)" fill="#414142" font-family="'SFUIText-BoldItalicG1'" font-size="35.8768">in</text>
</svg>
