<?xml version="1.0" encoding="utf-8"?>
<!-- Generator: Adobe Illustrator 16.0.3, SVG Export Plug-In . SVG Version: 6.00 Build 0)  -->
<!DOCTYPE svg PUBLIC "-//W3C//DTD SVG 1.1//EN" "http://www.w3.org/Graphics/SVG/1.1/DTD/svg11.dtd">
<svg version="1.1" id="Layer_1" xmlns="http://www.w3.org/2000/svg" xmlns:xlink="http://www.w3.org/1999/xlink" x="0px" y="0px"
	 width="85px" height="85px" viewBox="0 0 85 85" enable-background="new 0 0 85 85" xml:space="preserve">
<g>
	<path fill-rule="evenodd" clip-rule="evenodd" fill="#3B2314" d="M61.636,1.171c0.52,0.208,1.085,0.343,1.549,0.639
		c1.281,0.815,1.792,2.353,1.257,3.916c-0.229,0.669-0.571,1.401-1.085,1.847c-0.88,0.764-1.094,1.625-1.018,2.708
		c0.071,1.02,0.032,2.049,0.008,3.072c-0.024,1.016-0.516,1.574-1.342,1.589c-0.854,0.016-1.388-0.563-1.41-1.612
		c-0.026-1.262-0.006-2.524-0.006-3.838c-3.703,0-7.326,0-10.997,0c0,2.736,0,5.442,0,8.234c0.361,0,0.679,0,0.995,0
		c4.476,0,8.95-0.001,13.426,0c1.718,0,2.108,0.387,2.11,2.087c0.003,1.402,0.005,2.804-0.002,4.206
		c-0.002,0.295-0.016,0.595-0.072,0.883c-0.137,0.709-0.614,1.074-1.31,1.075c-0.695,0-1.203-0.36-1.305-1.074
		c-0.085-0.609-0.07-1.234-0.079-1.853c-0.012-0.805-0.002-1.61-0.002-2.486c-4.63,0-9.188,0-13.779,0c0,2.727,0,5.416,0,8.226
		c0.337,0,0.65,0,0.963,0c5.446,0,10.893-0.001,16.338,0c1.607,0,2.011,0.404,2.014,2.006c0.003,1.563,0.01,3.127-0.008,4.691
		c-0.006,0.626-0.198,1.248-0.855,1.409c-0.418,0.102-1.037,0.062-1.33-0.189c-0.329-0.283-0.52-0.868-0.548-1.334
		c-0.072-1.232-0.023-2.47-0.023-3.763c-5.535,0-10.994,0-16.517,0c0,2.691,0,5.396,0,8.218c0.303,0,0.614,0,0.926,0
		c6.39,0,12.779-0.001,19.168,0c1.486,0,1.943,0.448,1.95,1.915c0.006,1.483,0.005,2.966-0.002,4.449
		c-0.002,0.268-0.021,0.54-0.079,0.801c-0.161,0.704-0.723,1.151-1.393,1.083c-0.736-0.074-1.214-0.494-1.25-1.243
		c-0.052-1.076-0.029-2.155-0.039-3.233c-0.002-0.315,0-0.632,0-0.981c-6.479,0-12.859,0-19.292,0c0,2.728,0,5.433,0,8.234
		c0.337,0,0.651,0,0.967,0c8.169,0,16.337-0.001,24.506,0.004c0.348,0,0.703,0.018,1.039,0.094c0.709,0.157,1.027,0.671,1.029,1.357
		c0.002,0.672-0.523,1.196-1.224,1.283c-0.24,0.029-0.484,0.02-0.727,0.024c-0.212,0.004-0.424,0.001-0.729,0.001
		c-0.017,0.359-0.042,0.67-0.042,0.98c-0.003,5.418,0,10.838-0.007,16.257c0,0.373-0.02,0.76-0.113,1.118
		c-0.174,0.661-0.684,0.981-1.33,0.949c-0.684-0.034-1.163-0.418-1.271-1.134c-0.049-0.317-0.041-0.646-0.041-0.968
		c-0.003-5.366-0.002-10.731-0.002-16.096c0-0.321,0-0.642,0-1.034c-1.84,0-3.623,0-5.528,0c0,0.322,0,0.634,0,0.947
		c0,5.392,0.001,10.784-0.003,16.177c0,0.348-0.012,0.704-0.076,1.044c-0.135,0.716-0.645,1.071-1.323,1.063
		c-0.678-0.008-1.178-0.375-1.297-1.097c-0.057-0.343-0.069-0.695-0.069-1.045c-0.004-5.365-0.002-10.729-0.002-16.095
		c0-0.32,0-0.64,0-1.013c-12.898,0-25.716,0-38.644,0c0,0.348,0,0.662,0,0.977c0,5.392,0.001,10.783-0.003,16.176
		c0,0.349-0.011,0.704-0.078,1.045c-0.141,0.713-0.653,1.062-1.332,1.053c-0.643-0.009-1.137-0.354-1.271-1.028
		c-0.073-0.366-0.083-0.75-0.083-1.125c-0.005-5.366-0.003-10.73-0.003-16.096c0-0.318,0-0.637,0-1.005c-1.857,0-3.625,0-5.528,0
		c0,0.316,0,0.628,0,0.938c0,5.338,0,10.676,0,16.015c0,1.641-0.39,2.307-1.357,2.317c-0.992,0.011-1.404-0.686-1.404-2.371
		c0-5.284,0-10.568,0-15.853c0-0.321,0-0.644,0-1.104c-0.467,0-0.886,0.019-1.303-0.003c-0.853-0.046-1.424-0.589-1.438-1.342
		c-0.014-0.696,0.528-1.28,1.317-1.39c0.266-0.037,0.539-0.022,0.808-0.022c8.142-0.001,16.284-0.001,24.426-0.001
		c0.319,0,0.638,0,1.008,0c0-2.771,0-5.477,0-8.226c-6.405,0-12.785,0-19.293,0c0,0.284,0.001,0.567,0,0.851
		c-0.004,1.078,0.02,2.157-0.023,3.235c-0.033,0.829-0.568,1.347-1.306,1.37c-0.725,0.022-1.271-0.476-1.402-1.286
		c-0.025-0.159-0.031-0.322-0.031-0.482c-0.002-1.564-0.012-3.129,0.002-4.692c0.011-1.317,0.5-1.792,1.826-1.793
		c6.417-0.003,12.833-0.001,19.25-0.001c0.315,0,0.631,0,0.988,0c0-2.771,0-5.456,0-8.208c-5.484,0-10.963,0-16.537,0
		c0,0.331,0.002,0.647,0,0.965c-0.008,1.051,0.018,2.104-0.038,3.152c-0.041,0.781-0.583,1.28-1.283,1.315
		c-0.671,0.034-1.35-0.461-1.372-1.206c-0.057-1.963-0.048-3.93,0.006-5.893c0.02-0.706,0.542-1.083,1.248-1.141
		c0.295-0.024,0.593-0.021,0.889-0.021c5.365-0.001,10.73-0.001,16.095-0.001c0.316,0,0.632,0,0.991,0c0-2.782,0-5.468,0-8.227
		c-4.558,0-9.117,0-13.766,0c0,1.108,0.005,2.182-0.003,3.255c-0.002,0.349-0.007,0.703-0.066,1.045
		c-0.124,0.708-0.674,1.163-1.357,1.118c-0.696-0.045-1.208-0.402-1.268-1.12c-0.079-0.938-0.064-1.883-0.074-2.825
		c-0.01-0.862-0.018-1.726,0.002-2.588c0.028-1.215,0.516-1.71,1.742-1.719c2.481-0.018,4.961-0.005,7.441-0.005
		c2.424,0,4.849,0,7.333,0c0-2.763,0-5.469,0-8.231c-3.628,0-7.25,0-10.983,0c0,1.037,0.003,2.052-0.002,3.066
		c-0.001,0.376,0.01,0.758-0.042,1.128c-0.118,0.827-0.655,1.285-1.414,1.251c-0.716-0.032-1.24-0.507-1.273-1.307
		c-0.053-1.292-0.073-2.589-0.019-3.88c0.033-0.791-0.214-1.347-0.779-1.902c-1.717-1.687-1.673-4.602,0.066-5.958
		c0.411-0.321,0.94-0.487,1.416-0.725c0.377,0,0.755,0,1.133,0c0.525,0.433,1.023,0.872,0.838,1.669
		c-0.175,0.753-0.716,0.996-1.401,1.125c-0.189,0.036-0.413,0.263-0.49,0.455c-0.301,0.752,0.549,2.195,1.365,2.243
		c1.091,0.063,2.188,0.016,3.368,0.016c0-0.459-0.012-0.83,0.003-1.199c0.038-0.927,0.542-1.507,1.322-1.536
		c0.79-0.029,1.368,0.579,1.428,1.53c0.024,0.388,0.004,0.779,0.004,1.182c1.956,0,3.779,0,5.657,0
		c0.306-1.379,0.931-2.611,1.994-3.511c0.886-0.751,1.926-1.323,2.899-1.974c0.324,0,0.647,0,0.971,0
		c2.37,1.168,4.282,2.751,4.893,5.459c1.908,0,3.753,0,5.593,0c0.23-2.162,0.514-2.748,1.431-2.673
		c1.736,0.141,1.3,1.588,1.433,2.726c0.885,0,1.722-0.076,2.54,0.018c1.193,0.136,1.764-0.63,2.268-1.452
		c0.459-0.749,0.197-1.181-0.678-1.323c-1.178-0.19-1.74-1.183-1.157-2.083c0.167-0.259,0.44-0.45,0.664-0.671
		C60.881,1.171,61.258,1.171,61.636,1.171z M40.327,20.533c0,2.776,0,5.479,0,8.202c1.836,0,3.62,0,5.41,0c0-2.759,0-5.461,0-8.202
		C43.923,20.533,42.158,20.533,40.327,20.533z M45.716,17.688c0-2.764,0-5.489,0-8.196c-1.841,0-3.608,0-5.386,0
		c0,2.761,0,5.469,0,8.196C42.154,17.688,43.923,17.688,45.716,17.688z M45.74,39.794c0-2.765,0-5.466,0-8.188
		c-1.831,0-3.615,0-5.418,0c0,2.752,0,5.453,0,8.188C42.134,39.794,43.898,39.794,45.74,39.794z M40.326,42.616
		c0,2.773,0,5.475,0,8.184c1.834,0,3.619,0,5.41,0c0-2.755,0-5.454,0-8.184C43.921,42.616,42.155,42.616,40.326,42.616z
		 M40.563,6.641c1.695,0,3.269,0,4.941,0c-0.471-1.168-1.267-1.92-2.276-2.468c-0.111-0.061-0.321-0.038-0.44,0.028
		C41.809,4.749,41.022,5.479,40.563,6.641z"/>
	<path fill-rule="evenodd" clip-rule="evenodd" fill="#1F110A" d="M1.617,82.221c0.423-0.776,1.086-0.989,1.948-0.989
		c26.311,0.016,52.621,0.016,78.932,0c0.862,0,1.524,0.213,1.948,0.989c0,0.594,0,1.187,0,1.779c-27.609,0-55.219,0-82.828,0
		C1.617,83.407,1.617,82.814,1.617,82.221z"/>
	<path fill-rule="evenodd" clip-rule="evenodd" fill="#1F110A" d="M31.949,59.115c-0.537,0-0.993,0.033-1.443-0.008
		c-0.745-0.066-1.177-0.499-1.24-1.249c-0.062-0.731,0.373-1.265,1.146-1.415c0.288-0.055,0.588-0.063,0.883-0.063
		c7.819-0.004,15.637-0.004,23.456,0.002c0.373,0.001,0.763,0.014,1.117,0.116c0.646,0.189,0.965,0.672,0.93,1.345
		c-0.036,0.672-0.403,1.122-1.067,1.236c-0.521,0.088-1.058,0.078-1.623,0.114c0,5.519,0,10.979,0,16.536c0.356,0,0.671,0,0.985,0
		c7.278,0,14.558,0,21.838,0c1.315,0,1.988,0.466,1.987,1.37s-0.689,1.387-1.989,1.387c-22.594,0.001-45.186,0.001-67.779,0.001
		c-0.134,0-0.269,0.005-0.404-0.002c-0.966-0.042-1.59-0.577-1.602-1.37c-0.013-0.82,0.632-1.381,1.648-1.382
		c5.257-0.007,10.515-0.004,15.772-0.004c2.21,0,4.421,0.001,6.632-0.001c0.236-0.001,0.472-0.026,0.753-0.043
		C31.949,70.184,31.949,64.725,31.949,59.115z M41.641,75.703c0-1.767,0.015-3.459-0.023-5.15c-0.003-0.166-0.355-0.305-0.498-0.491
		c-0.294-0.387-0.78-0.803-0.773-1.198c0.009-0.436,0.389-1.034,0.779-1.247c0.456-0.248,0.527-0.494,0.525-0.92
		c-0.011-1.806-0.005-3.61-0.005-5.417c0-2.137,0-2.137-2.14-2.137c-1.556,0-3.112,0-4.68,0c0,5.577,0,11.055,0,16.561
		C37.09,75.703,39.292,75.703,41.641,75.703z M51.24,75.686c0-5.521,0-10.997,0-16.491c-2.286,0-4.51,0-6.741,0
		c-0.032,0.152-0.074,0.256-0.074,0.359c-0.005,2.452-0.019,4.904,0.016,7.356c0.003,0.217,0.28,0.511,0.504,0.632
		c0.954,0.514,1.205,1.881,0.28,2.29c-0.942,0.415-0.804,1.048-0.807,1.742c-0.005,1.363-0.001,2.725-0.001,4.111
		C46.769,75.686,48.991,75.686,51.24,75.686z"/>
	<path fill-rule="evenodd" clip-rule="evenodd" fill="#E74725" d="M34.772,13.634c-0.023,0.765-0.669,1.348-1.445,1.307
		c-0.732-0.039-1.314-0.662-1.292-1.385c0.022-0.711,0.66-1.333,1.368-1.333C34.146,12.223,34.795,12.893,34.772,13.634z"/>
	<path fill-rule="evenodd" clip-rule="evenodd" fill="#E74725" d="M29.262,35.699c-0.01,0.7-0.651,1.345-1.353,1.359
		c-0.74,0.015-1.391-0.641-1.385-1.394c0.006-0.768,0.641-1.366,1.416-1.335C28.663,34.358,29.272,34.99,29.262,35.699z"/>
	<path fill-rule="evenodd" clip-rule="evenodd" fill="#E74725" d="M29.262,46.725c0.001,0.708-0.62,1.341-1.335,1.361
		c-0.758,0.021-1.4-0.602-1.403-1.36c-0.003-0.722,0.598-1.345,1.319-1.369C28.574,45.332,29.262,45.993,29.262,46.725z"/>
	<path fill-rule="evenodd" clip-rule="evenodd" fill="#E74725" d="M34.773,24.675c-0.023,0.758-0.681,1.358-1.442,1.313
		c-0.73-0.042-1.313-0.667-1.292-1.386c0.021-0.766,0.664-1.348,1.442-1.307C34.222,23.334,34.795,23.946,34.773,24.675z"/>
	<path fill-rule="evenodd" clip-rule="evenodd" fill="#E74725" d="M23.737,46.697c0.018,0.708-0.589,1.353-1.306,1.387
		c-0.768,0.037-1.407-0.562-1.42-1.33c-0.013-0.74,0.552-1.355,1.282-1.396C23.023,45.316,23.718,45.961,23.737,46.697z"/>
	<path fill-rule="evenodd" clip-rule="evenodd" fill="#E74725" d="M33.41,48.088c-0.748,0-1.395-0.659-1.373-1.398
		c0.021-0.706,0.665-1.337,1.365-1.338c0.734-0.001,1.393,0.677,1.371,1.411C34.752,47.48,34.127,48.088,33.41,48.088z"/>
	<path fill-rule="evenodd" clip-rule="evenodd" fill="#E74725" d="M63.738,45.356c0.733-0.022,1.415,0.64,1.413,1.372
		c-0.001,0.709-0.622,1.34-1.337,1.358c-0.736,0.018-1.35-0.55-1.387-1.285C62.39,46.028,62.977,45.378,63.738,45.356z"/>
	<path fill-rule="evenodd" clip-rule="evenodd" fill="#E74725" d="M54.086,13.574c0.01,0.748-0.551,1.342-1.293,1.369
		c-0.777,0.028-1.405-0.56-1.419-1.33c-0.013-0.756,0.625-1.396,1.378-1.384C53.479,12.242,54.076,12.843,54.086,13.574z"/>
	<path fill-rule="evenodd" clip-rule="evenodd" fill="#E74725" d="M27.872,23.291c0.768-0.006,1.406,0.626,1.388,1.375
		c-0.017,0.715-0.641,1.326-1.36,1.333c-0.761,0.007-1.386-0.624-1.374-1.388C26.537,23.868,27.12,23.296,27.872,23.291z"/>
	<path fill-rule="evenodd" clip-rule="evenodd" fill="#E74725" d="M34.774,35.662c0.013,0.708-0.593,1.353-1.306,1.392
		c-0.728,0.039-1.421-0.613-1.433-1.349c-0.012-0.719,0.584-1.345,1.309-1.374C34.107,34.299,34.76,34.907,34.774,35.662z"/>
	<path fill-rule="evenodd" clip-rule="evenodd" fill="#E74725" d="M54.085,35.667c0.01,0.764-0.627,1.406-1.376,1.388
		c-0.712-0.017-1.329-0.642-1.34-1.354c-0.011-0.731,0.571-1.343,1.305-1.371C53.451,34.3,54.076,34.891,54.085,35.667z"/>
	<path fill-rule="evenodd" clip-rule="evenodd" fill="#E74725" d="M54.084,46.759c-0.017,0.74-0.61,1.325-1.346,1.327
		c-0.759,0.002-1.384-0.635-1.366-1.396c0.015-0.718,0.637-1.331,1.353-1.334C53.479,45.353,54.103,45.996,54.084,46.759z"/>
	<path fill-rule="evenodd" clip-rule="evenodd" fill="#E74725" d="M58.266,45.355c0.746,0.009,1.382,0.676,1.352,1.419
		c-0.028,0.73-0.642,1.316-1.371,1.312c-0.771-0.006-1.363-0.629-1.339-1.41C56.931,45.938,57.538,45.347,58.266,45.355z"/>
	<path fill-rule="evenodd" clip-rule="evenodd" fill="#E74725" d="M58.234,37.055c-0.762-0.016-1.355-0.658-1.324-1.433
		c0.03-0.752,0.615-1.305,1.367-1.292c0.765,0.013,1.378,0.66,1.341,1.416C59.583,36.461,58.94,37.069,58.234,37.055z"/>
	<path fill-rule="evenodd" clip-rule="evenodd" fill="#E74725" d="M58.254,25.993c-0.773-0.003-1.365-0.618-1.345-1.397
		c0.021-0.749,0.598-1.307,1.349-1.303c0.773,0.004,1.389,0.631,1.362,1.39C59.595,25.411,58.985,25.995,58.254,25.993z"/>
	<path fill-rule="evenodd" clip-rule="evenodd" fill="#E74725" d="M54.083,24.618c0.011,0.741-0.554,1.342-1.289,1.372
		c-0.766,0.032-1.402-0.566-1.417-1.331c-0.014-0.737,0.555-1.337,1.294-1.366C53.451,23.263,54.071,23.844,54.083,24.618z"/>
</g>
</svg>
