<?xml version="1.0" encoding="utf-8"?>
<!-- Generator: Adobe Illustrator 16.0.3, SVG Export Plug-In . SVG Version: 6.00 Build 0)  -->
<!DOCTYPE svg PUBLIC "-//W3C//DTD SVG 1.1//EN" "http://www.w3.org/Graphics/SVG/1.1/DTD/svg11.dtd">
<svg version="1.1" id="Capa_1" xmlns="http://www.w3.org/2000/svg" xmlns:xlink="http://www.w3.org/1999/xlink" x="0px" y="0px"
	 width="50px" height="50px" viewBox="0 0 50 50" enable-background="new 0 0 50 50" xml:space="preserve">
<path fill="#F06821" d="M49.979,33.635c-0.195-0.994-1.918-9.752-2.344-11.031c-1.023-3.074-3.482-6.574-6.578-9.362
	c-3.218-2.898-6.552-4.561-9.147-4.561H6.662c-1.309,0-2.373,1.065-2.373,2.373v3.729H2.541c-0.641,0-1.161,0.52-1.161,1.161
	s0.52,1.161,1.161,1.161h1.748v2.769H1.161C0.52,19.874,0,20.394,0,21.034c0,0.641,0.52,1.161,1.161,1.161h3.128v11.663
	c0,1.308,1.064,2.372,2.373,2.372h2.894c0.433,2.877,2.92,5.088,5.915,5.088c2.994,0,5.481-2.211,5.914-5.088h10.649
	c0.432,2.877,2.92,5.088,5.914,5.088s5.481-2.211,5.914-5.088h3.766c1.309,0,2.373-1.064,2.373-2.372
	C50,33.783,49.992,33.709,49.979,33.635z M45.299,22.963l-11.963,0V11.21C37.574,12.348,43.447,17.986,45.299,22.963z M15.47,38.997
	c-2.018,0-3.66-1.642-3.66-3.659s1.642-3.66,3.66-3.66s3.66,1.643,3.66,3.66S17.488,38.997,15.47,38.997z M37.947,38.997
	c-2.018,0-3.66-1.642-3.66-3.659s1.643-3.66,3.66-3.66s3.659,1.643,3.659,3.66S39.965,38.997,37.947,38.997z M47.569,33.91
	c-0.968,0-3.814,0-3.814,0c-0.642-2.611-3.002-4.554-5.808-4.554c-2.807,0-5.166,1.942-5.809,4.554H21.278
	c-0.642-2.611-3.001-4.554-5.808-4.554s-5.166,1.942-5.808,4.554H6.662c-0.028,0-0.051-0.023-0.051-0.052V22.195h14.227
	c0.641,0,1.161-0.52,1.161-1.161s-0.52-1.161-1.161-1.161H6.61v-2.769h6.549c0.641,0,1.161-0.52,1.161-1.161
	s-0.52-1.161-1.161-1.161H6.61v-3.729c0-0.028,0.023-0.051,0.052-0.051h24.353v13.121c0,0.641,0.52,1.161,1.161,1.161h13.724
	c0.495,2.257,1.175,5.876,1.752,8.554C47.663,33.892,47.629,33.91,47.569,33.91z"/>
</svg>
