<?xml version="1.0" encoding="utf-8"?>
<!-- Generator: Adobe Illustrator 16.0.3, SVG Export Plug-In . SVG Version: 6.00 Build 0)  -->
<!DOCTYPE svg PUBLIC "-//W3C//DTD SVG 1.1//EN" "http://www.w3.org/Graphics/SVG/1.1/DTD/svg11.dtd">
<svg version="1.1" id="Layer_1" xmlns="http://www.w3.org/2000/svg" xmlns:xlink="http://www.w3.org/1999/xlink" x="0px" y="0px"
	 width="35px" height="35px" viewBox="0 0 35 35" enable-background="new 0 0 35 35" xml:space="preserve">
<g>
	<g>
		<g>
			<path fill="#FFFFFF" d="M28.313,13.494h-2.14H6.187c-1.074,0-1.948-0.873-1.95-1.946v-0.005c0,0,0-0.001,0-0.001
				c0-1.075,0.875-1.949,1.95-1.949h3.308c0.265,0,0.479-0.214,0.479-0.479c0-0.265-0.214-0.48-0.479-0.48H6.187
				c-1.604,0-2.91,1.306-2.91,2.91c0,0.002,0,0.003,0,0.005v16.029c0,0.265,0.215,0.479,0.479,0.479c0.265,0,0.48-0.215,0.48-0.479
				V13.701c0.517,0.467,1.201,0.752,1.95,0.752h19.986h2.14c0.542,0,0.983,0.441,0.983,0.983v3.396c0,0.266,0.215,0.479,0.479,0.479
				s0.479-0.214,0.479-0.479v-3.396C30.255,14.366,29.383,13.494,28.313,13.494z"/>
		</g>
	</g>
	<g>
		<g>
			<path fill="#FFFFFF" d="M29.775,26.915c-0.266,0-0.479,0.215-0.479,0.479v4.33c0,0.542-0.441,0.983-0.983,0.983H6.187
				c-1.076,0-1.95-0.875-1.95-1.951v-1.581c0-0.265-0.215-0.479-0.48-0.479c-0.265,0-0.479,0.215-0.479,0.479v1.581
				c0,1.604,1.305,2.91,2.91,2.91h22.126c1.07,0,1.942-0.871,1.942-1.942v-4.33C30.255,27.13,30.04,26.915,29.775,26.915z"/>
		</g>
	</g>
	<g>
		<g>
			<path fill="#FFFFFF" d="M28.755,8.633h-0.38c-0.266,0-0.479,0.215-0.479,0.48c0,0.265,0.214,0.479,0.479,0.479h0.38
				c0.298,0,0.541,0.243,0.541,0.541v2.772c0,0.265,0.214,0.479,0.479,0.479c0.265,0,0.479-0.214,0.479-0.479v-2.772
				C30.255,9.307,29.582,8.633,28.755,8.633z"/>
		</g>
	</g>
	<g>
		<g>
			<path fill="#FFFFFF" d="M27.113,8.456l-6.469-6.468c-0.363-0.363-0.846-0.563-1.359-0.563s-0.998,0.2-1.361,0.563L15.85,4.063
				c-0.188,0.187-0.188,0.491,0,0.678c0.187,0.187,0.49,0.187,0.678,0l2.075-2.075c0.183-0.183,0.425-0.283,0.683-0.283
				s0.5,0.1,0.682,0.283l6.468,6.468c0.376,0.376,0.376,0.988,0,1.364l-1.486,1.486c-0.188,0.188-0.188,0.491,0,0.678
				c0.094,0.094,0.216,0.141,0.339,0.141s0.246-0.047,0.34-0.141l1.486-1.486C27.863,10.426,27.863,9.207,27.113,8.456z"/>
		</g>
	</g>
	<g>
		<g>
			<path fill="#FFFFFF" d="M15.425,5.167c-0.188-0.187-0.492-0.187-0.678,0l-6.819,6.818c-0.187,0.188-0.187,0.491,0,0.678
				c0.094,0.094,0.216,0.141,0.339,0.141s0.246-0.047,0.339-0.141l6.819-6.818C15.611,5.658,15.611,5.354,15.425,5.167z"/>
		</g>
	</g>
	<g>
		<g>
			<path fill="#FFFFFF" d="M24.215,11.198c-0.04-0.163-0.164-0.293-0.325-0.343c-0.171-0.052-0.322-0.143-0.449-0.271
				c-0.206-0.205-0.318-0.478-0.318-0.768s0.112-0.563,0.319-0.769c0.126-0.127,0.277-0.218,0.448-0.271
				c0.161-0.049,0.285-0.179,0.325-0.342c0.041-0.163-0.007-0.336-0.126-0.455l-2.968-2.967c-0.119-0.119-0.291-0.167-0.455-0.126
				c-0.163,0.041-0.293,0.164-0.342,0.325c-0.053,0.171-0.144,0.322-0.271,0.45c-0.205,0.205-0.478,0.318-0.768,0.318
				s-0.563-0.113-0.769-0.318c-0.127-0.127-0.218-0.278-0.271-0.449c-0.05-0.161-0.18-0.285-0.342-0.325
				c-0.164-0.041-0.336,0.007-0.456,0.126l-6.972,6.972c-0.187,0.188-0.187,0.491,0,0.678c0.188,0.188,0.491,0.188,0.678,0
				l6.514-6.515c0.052,0.067,0.109,0.131,0.169,0.191c0.387,0.387,0.9,0.6,1.447,0.6l0,0c0.547,0,1.061-0.213,1.445-0.6
				c0.061-0.061,0.117-0.125,0.169-0.192l2.055,2.054c-0.068,0.052-0.132,0.108-0.192,0.169c-0.386,0.386-0.599,0.899-0.599,1.446
				c0,0.546,0.213,1.061,0.599,1.445c0.061,0.061,0.124,0.118,0.192,0.17L22.4,11.985c-0.187,0.188-0.187,0.491,0,0.678
				c0.094,0.094,0.217,0.141,0.34,0.141s0.245-0.047,0.339-0.141l1.01-1.009C24.208,11.534,24.256,11.361,24.215,11.198z"/>
		</g>
	</g>
	<g>
		<g>
			<path fill="#FFFFFF" d="M19.378,12.214c-0.142-0.605-0.449-1.159-0.891-1.601c-0.632-0.631-1.471-0.979-2.364-0.979
				c-0.893,0-1.732,0.348-2.363,0.979c-0.441,0.441-0.75,0.995-0.892,1.6c-0.06,0.258,0.1,0.516,0.358,0.576s0.516-0.1,0.576-0.358
				c0.101-0.431,0.32-0.825,0.635-1.14c0.451-0.45,1.048-0.698,1.686-0.698c0.637,0,1.235,0.248,1.685,0.698
				c0.315,0.315,0.535,0.709,0.635,1.141c0.053,0.221,0.249,0.371,0.467,0.371c0.036,0,0.072-0.004,0.109-0.013
				C19.278,12.73,19.438,12.473,19.378,12.214z"/>
		</g>
	</g>
	<g>
		<g>
			<path fill="#FFFFFF" d="M29.85,19.632h-4.277c-1.92,0-3.481,1.562-3.481,3.481s1.562,3.481,3.481,3.481h4.277
				c0.849,0,1.539-0.69,1.539-1.539v-3.884C31.389,20.322,30.698,19.632,29.85,19.632z M30.43,25.056c0,0.32-0.26,0.58-0.58,0.58
				h-4.277c-1.391,0-2.522-1.131-2.522-2.522c0-1.391,1.132-2.522,2.522-2.522h4.277c0.32,0,0.58,0.261,0.58,0.581V25.056z"/>
		</g>
	</g>
	<g>
		<g>
			<path fill="#FFFFFF" d="M25.506,21.434c-0.927,0-1.681,0.753-1.681,1.68s0.754,1.681,1.681,1.681s1.68-0.754,1.68-1.681
				S26.433,21.434,25.506,21.434z M25.506,23.835c-0.398,0-0.722-0.324-0.722-0.722s0.324-0.721,0.722-0.721
				s0.721,0.323,0.721,0.721S25.903,23.835,25.506,23.835z"/>
		</g>
	</g>
</g>
</svg>
